<?xml version="1.0" encoding="UTF-8"?>
<!DOCTYPE svg PUBLIC "-//W3C//DTD SVG 1.1//EN" "http://www.w3.org/Graphics/SVG/1.1/DTD/svg11.dtd">
<svg xmlns="http://www.w3.org/2000/svg" version="1.1" width="400px" height="400px" style="shape-rendering:geometricPrecision; text-rendering:geometricPrecision; image-rendering:optimizeQuality; fill-rule:evenodd; clip-rule:evenodd" xmlns:xlink="http://www.w3.org/1999/xlink">
<g><path style="opacity:1" fill="#f6f3f4" d="M -0.5,-0.5 C 132.833,-0.5 266.167,-0.5 399.5,-0.5C 399.5,132.833 399.5,266.167 399.5,399.5C 266.167,399.5 132.833,399.5 -0.5,399.5C -0.5,266.167 -0.5,132.833 -0.5,-0.5 Z"/></g>
<g><path style="opacity:1" fill="#e7521f" d="M 271.5,63.5 C 273.074,63.9371 274.241,64.9371 275,66.5C 283.09,80.4064 290.923,94.4064 298.5,108.5C 297.761,112.746 299.427,115.413 303.5,116.5C 312.618,131.9 321.618,147.4 330.5,163C 326.946,167.38 323.279,171.547 319.5,175.5C 317.408,175.561 315.908,176.561 315,178.5C 314.667,178.167 314.333,177.833 314,177.5C 313.751,178.624 313.251,179.624 312.5,180.5C 311.305,178.703 309.638,177.703 307.5,177.5C 307.888,179.685 308.888,181.518 310.5,183C 309.586,184.406 308.92,185.906 308.5,187.5C 307.139,189.527 305.473,191.194 303.5,192.5C 301.863,191.782 300.197,191.616 298.5,192C 299.38,193.356 299.714,194.856 299.5,196.5C 297.801,196.34 296.134,196.506 294.5,197C 297.051,198.516 296.718,199.349 293.5,199.5C 293.5,200.833 293.5,202.167 293.5,203.5C 291.508,203.672 289.842,203.005 288.5,201.5C 288.167,202 287.833,202.5 287.5,203C 288.167,204 288.833,205 289.5,206C 288.293,207.3 287.626,208.8 287.5,210.5C 267.771,234.594 247.105,257.928 225.5,280.5C 223.553,281.473 221.553,282.473 219.5,283.5C 218.754,284.736 218.421,286.07 218.5,287.5C 217.5,287.5 216.5,287.5 215.5,287.5C 214.835,285.302 214.168,282.969 213.5,280.5C 210.682,281.929 209.349,284.262 209.5,287.5C 213.138,286.737 214.638,288.07 214,291.5C 212.759,289.579 211.259,289.246 209.5,290.5C 208.066,292.22 207.233,294.22 207,296.5C 205.933,297.191 204.766,297.691 203.5,298C 203.833,298.333 204.167,298.667 204.5,299C 202.137,299.589 201.137,301.089 201.5,303.5C 198.386,304.091 195.886,305.758 194,308.5C 193.667,306.953 194.167,305.62 195.5,304.5C 194.311,303.571 192.978,303.238 191.5,303.5C 191.719,304.675 191.386,305.675 190.5,306.5C 180.833,304.833 176.833,308.833 178.5,318.5C 175.595,320.813 172.595,320.98 169.5,319C 171.577,318.808 173.577,318.308 175.5,317.5C 172.914,316.52 170.247,316.187 167.5,316.5C 167.5,315.5 167.5,314.5 167.5,313.5C 163.486,313.666 159.486,313.499 155.5,313C 154.366,311.984 154.699,311.317 156.5,311C 152.145,310.92 147.978,311.753 144,313.5C 142.338,313.612 141.171,312.946 140.5,311.5C 151.756,307.841 163.09,307.508 174.5,310.5C 174.833,310.167 175.167,309.833 175.5,309.5C 174.5,308.667 173.5,307.833 172.5,307C 174.797,306.982 177.131,307.149 179.5,307.5C 179.5,305.833 179.5,304.167 179.5,302.5C 182.176,303.008 184.843,303.175 187.5,303C 182.433,300.866 182.6,298.699 188,296.5C 188.95,297.022 189.784,297.689 190.5,298.5C 191.185,296.219 191.351,293.886 191,291.5C 192.333,290.833 193.333,289.833 194,288.5C 194.263,282.71 195.096,277.043 196.5,271.5C 194.446,271.365 192.779,272.032 191.5,273.5C 186.691,252.599 182.358,231.599 178.5,210.5C 178.82,207.102 178.487,203.768 177.5,200.5C 176.817,200.137 176.15,199.804 175.5,199.5C 172.17,181.851 168.837,164.185 165.5,146.5C 166.154,140.375 165.154,134.709 162.5,129.5C 163.064,127.181 163.564,124.847 164,122.5C 167.235,120.787 170.235,118.787 173,116.5C 172.936,114.044 173.102,111.711 173.5,109.5C 196.668,95.0788 220.335,81.4122 244.5,68.5C 247.09,68.6038 249.423,67.9371 251.5,66.5C 252.554,66.6799 253.554,67.0133 254.5,67.5C 254.5,66.1667 254.5,64.8333 254.5,63.5C 258.187,61.4668 261.853,59.4668 265.5,57.5C 266.59,58.3914 266.59,59.3914 265.5,60.5C 267.755,61.1937 269.755,62.1937 271.5,63.5 Z"/></g>
<g><path style="opacity:1" fill="#d45b32" d="M 271.5,63.5 C 269.755,62.1937 267.755,61.1937 265.5,60.5C 266.59,59.3914 266.59,58.3914 265.5,57.5C 261.853,59.4668 258.187,61.4668 254.5,63.5C 254.5,64.8333 254.5,66.1667 254.5,67.5C 253.554,67.0133 252.554,66.6799 251.5,66.5C 249.423,67.9371 247.09,68.6038 244.5,68.5C 251.478,63.6733 258.812,59.34 266.5,55.5C 269.751,57.1011 271.417,59.7678 271.5,63.5 Z"/></g>
<g><path style="opacity:1" fill="#cd5c3e" d="M 298.5,108.5 C 300.653,110.794 302.32,113.46 303.5,116.5C 299.427,115.413 297.761,112.746 298.5,108.5 Z"/></g>
<g><path style="opacity:1" fill="#dd5729" d="M 173.5,109.5 C 173.102,111.711 172.936,114.044 173,116.5C 170.235,118.787 167.235,120.787 164,122.5C 163.564,124.847 163.064,127.181 162.5,129.5C 165.154,134.709 166.154,140.375 165.5,146.5C 162.462,136.802 160.628,126.802 160,116.5C 164.41,113.907 168.91,111.574 173.5,109.5 Z"/></g>
<g><path style="opacity:1" fill="#d05f2c" d="M 319.5,175.5 C 315.805,179.526 312.138,183.526 308.5,187.5C 308.92,185.906 309.586,184.406 310.5,183C 308.888,181.518 307.888,179.685 307.5,177.5C 309.638,177.703 311.305,178.703 312.5,180.5C 313.251,179.624 313.751,178.624 314,177.5C 314.333,177.833 314.667,178.167 315,178.5C 315.908,176.561 317.408,175.561 319.5,175.5 Z"/></g>
<g><path style="opacity:1" fill="#d85830" d="M 303.5,192.5 C 298.532,198.803 293.198,204.803 287.5,210.5C 287.626,208.8 288.293,207.3 289.5,206C 288.833,205 288.167,204 287.5,203C 287.833,202.5 288.167,202 288.5,201.5C 289.842,203.005 291.508,203.672 293.5,203.5C 293.5,202.167 293.5,200.833 293.5,199.5C 296.718,199.349 297.051,198.516 294.5,197C 296.134,196.506 297.801,196.34 299.5,196.5C 299.714,194.856 299.38,193.356 298.5,192C 300.197,191.616 301.863,191.782 303.5,192.5 Z"/></g>
<g><path style="opacity:1" fill="#d16243" d="M 175.5,199.5 C 176.15,199.804 176.817,200.137 177.5,200.5C 178.487,203.768 178.82,207.102 178.5,210.5C 177.614,206.917 176.614,203.25 175.5,199.5 Z"/></g>
<g><path style="opacity:1" fill="#d26a4a" d="M 69.5,248.5 C 69.1667,248.5 68.8333,248.5 68.5,248.5C 63.8333,248.5 59.1667,248.5 54.5,248.5C 54.5,252.833 54.5,257.167 54.5,261.5C 54.5,263.167 54.5,264.833 54.5,266.5C 53.3467,260.347 53.18,254.014 54,247.5C 59.3322,246.262 64.4988,246.595 69.5,248.5 Z"/></g>
<g><path style="opacity:1" fill="#e8511e" d="M 68.5,248.5 C 68.6107,249.117 68.944,249.617 69.5,250C 67.4233,250.192 65.4233,250.692 63.5,251.5C 71.5066,253.021 79.5066,254.688 87.5,256.5C 89.0542,259.93 91.7209,261.93 95.5,262.5C 96.9501,263.85 97.6168,265.516 97.5,267.5C 98.552,267.351 99.552,267.517 100.5,268C 108.003,272.001 114.169,277.501 119,284.5C 119.5,284 120,283.5 120.5,283C 118.102,281.364 116.935,279.198 117,276.5C 118.039,277.71 119.206,278.71 120.5,279.5C 123.848,282.851 126.848,286.518 129.5,290.5C 125.83,295.499 121.83,300.166 117.5,304.5C 114.802,301.606 112.469,298.439 110.5,295C 110.833,294.5 111.167,294 111.5,293.5C 113.642,294.601 115.808,295.601 118,296.5C 119.02,295.109 119.853,293.609 120.5,292C 116.438,290.812 112.438,289.312 108.5,287.5C 107.833,287.833 107.167,288.167 106.5,288.5C 107.325,289.386 108.325,289.719 109.5,289.5C 109.657,290.873 109.49,292.207 109,293.5C 107.887,292.695 106.721,292.028 105.5,291.5C 103.833,290.5 102.5,289.167 101.5,287.5C 101.662,285.473 101.495,283.473 101,281.5C 97.4412,280.965 94.2746,279.632 91.5,277.5C 90.2753,275.551 90.942,274.218 93.5,273.5C 93.3333,273.167 93.1667,272.833 93,272.5C 90.7904,273.749 88.6237,273.582 86.5,272C 86.8333,271.667 87.1667,271.333 87.5,271C 85.3333,268.167 82.8333,265.667 80,263.5C 77.5019,265.371 74.6686,266.704 71.5,267.5C 67.1357,267.03 62.8024,266.364 58.5,265.5C 62.1073,264.511 65.774,264.177 69.5,264.5C 69.5,263.5 69.5,262.5 69.5,261.5C 67.2075,261.244 65.0408,261.577 63,262.5C 62.8253,258.789 62.3253,255.122 61.5,251.5C 60.7518,254.497 60.0851,257.497 59.5,260.5C 57.9547,261.452 56.288,261.785 54.5,261.5C 54.5,257.167 54.5,252.833 54.5,248.5C 59.1667,248.5 63.8333,248.5 68.5,248.5 Z"/></g>
<g><path style="opacity:1" fill="#de572a" d="M 91.5,277.5 C 80.0508,270.558 67.7175,266.891 54.5,266.5C 54.5,264.833 54.5,263.167 54.5,261.5C 56.288,261.785 57.9547,261.452 59.5,260.5C 60.0851,257.497 60.7518,254.497 61.5,251.5C 62.3253,255.122 62.8253,258.789 63,262.5C 65.0408,261.577 67.2075,261.244 69.5,261.5C 69.5,262.5 69.5,263.5 69.5,264.5C 65.774,264.177 62.1073,264.511 58.5,265.5C 62.8024,266.364 67.1357,267.03 71.5,267.5C 74.6686,266.704 77.5019,265.371 80,263.5C 82.8333,265.667 85.3333,268.167 87.5,271C 87.1667,271.333 86.8333,271.667 86.5,272C 88.6237,273.582 90.7904,273.749 93,272.5C 93.1667,272.833 93.3333,273.167 93.5,273.5C 90.942,274.218 90.2753,275.551 91.5,277.5 Z"/></g>
<g><path style="opacity:1" fill="#de5625" d="M 68.5,248.5 C 68.8333,248.5 69.1667,248.5 69.5,248.5C 85.7564,250.212 99.5898,256.879 111,268.5C 111.483,269.448 111.649,270.448 111.5,271.5C 115.734,272.731 118.734,275.398 120.5,279.5C 119.206,278.71 118.039,277.71 117,276.5C 116.935,279.198 118.102,281.364 120.5,283C 120,283.5 119.5,284 119,284.5C 114.169,277.501 108.003,272.001 100.5,268C 99.552,267.517 98.552,267.351 97.5,267.5C 97.6168,265.516 96.9501,263.85 95.5,262.5C 91.7209,261.93 89.0542,259.93 87.5,256.5C 79.5066,254.688 71.5066,253.021 63.5,251.5C 65.4233,250.692 67.4233,250.192 69.5,250C 68.944,249.617 68.6107,249.117 68.5,248.5 Z"/></g>
<g><path style="opacity:1" fill="#d46133" d="M 91.5,277.5 C 94.2746,279.632 97.4412,280.965 101,281.5C 101.495,283.473 101.662,285.473 101.5,287.5C 97.8333,284.5 94.5,281.167 91.5,277.5 Z"/></g>
<g><path style="opacity:1" fill="#cf5d35" d="M 225.5,280.5 C 222.537,284.798 219.203,288.798 215.5,292.5C 215.5,290.833 215.5,289.167 215.5,287.5C 216.5,287.5 217.5,287.5 218.5,287.5C 218.421,286.07 218.754,284.736 219.5,283.5C 221.553,282.473 223.553,281.473 225.5,280.5 Z"/></g>
<g><path style="opacity:1" fill="#e35422" d="M 215.5,287.5 C 215.5,289.167 215.5,290.833 215.5,292.5C 206.251,304.583 195.251,314.75 182.5,323C 177.671,324.958 172.671,326.124 167.5,326.5C 159.385,326.594 151.385,325.927 143.5,324.5C 137.551,323.36 132.218,320.86 127.5,317C 118.812,309.493 111.479,300.993 105.5,291.5C 106.721,292.028 107.887,292.695 109,293.5C 109.49,292.207 109.657,290.873 109.5,289.5C 108.325,289.719 107.325,289.386 106.5,288.5C 107.167,288.167 107.833,287.833 108.5,287.5C 112.438,289.312 116.438,290.812 120.5,292C 119.853,293.609 119.02,295.109 118,296.5C 115.808,295.601 113.642,294.601 111.5,293.5C 111.167,294 110.833,294.5 110.5,295C 112.469,298.439 114.802,301.606 117.5,304.5C 121.83,300.166 125.83,295.499 129.5,290.5C 141.423,306.417 156.756,310.917 175.5,304C 182.292,299.542 188.125,294.042 193,287.5C 192.518,282.879 192.018,278.212 191.5,273.5C 192.779,272.032 194.446,271.365 196.5,271.5C 195.096,277.043 194.263,282.71 194,288.5C 193.333,289.833 192.333,290.833 191,291.5C 191.351,293.886 191.185,296.219 190.5,298.5C 189.784,297.689 188.95,297.022 188,296.5C 182.6,298.699 182.433,300.866 187.5,303C 184.843,303.175 182.176,303.008 179.5,302.5C 179.5,304.167 179.5,305.833 179.5,307.5C 177.131,307.149 174.797,306.982 172.5,307C 173.5,307.833 174.5,308.667 175.5,309.5C 175.167,309.833 174.833,310.167 174.5,310.5C 163.09,307.508 151.756,307.841 140.5,311.5C 141.171,312.946 142.338,313.612 144,313.5C 147.978,311.753 152.145,310.92 156.5,311C 154.699,311.317 154.366,311.984 155.5,313C 159.486,313.499 163.486,313.666 167.5,313.5C 167.5,314.5 167.5,315.5 167.5,316.5C 170.247,316.187 172.914,316.52 175.5,317.5C 173.577,318.308 171.577,318.808 169.5,319C 172.595,320.98 175.595,320.813 178.5,318.5C 176.833,308.833 180.833,304.833 190.5,306.5C 191.386,305.675 191.719,304.675 191.5,303.5C 192.978,303.238 194.311,303.571 195.5,304.5C 194.167,305.62 193.667,306.953 194,308.5C 195.886,305.758 198.386,304.091 201.5,303.5C 201.137,301.089 202.137,299.589 204.5,299C 204.167,298.667 203.833,298.333 203.5,298C 204.766,297.691 205.933,297.191 207,296.5C 207.233,294.22 208.066,292.22 209.5,290.5C 211.259,289.246 212.759,289.579 214,291.5C 214.638,288.07 213.138,286.737 209.5,287.5C 209.349,284.262 210.682,281.929 213.5,280.5C 214.168,282.969 214.835,285.302 215.5,287.5 Z"/></g>
<g><path style="opacity:1" fill="#cf6439" d="M 143.5,324.5 C 151.385,325.927 159.385,326.594 167.5,326.5C 162.015,327.652 156.349,327.818 150.5,327C 147.896,326.61 145.562,325.776 143.5,324.5 Z"/></g>
</svg>
