<?xml version="1.0" encoding="UTF-8"?>
<!DOCTYPE svg PUBLIC "-//W3C//DTD SVG 1.1//EN" "http://www.w3.org/Graphics/SVG/1.1/DTD/svg11.dtd">
<svg xmlns="http://www.w3.org/2000/svg" version="1.1" width="150px" height="150px" style="shape-rendering:geometricPrecision; text-rendering:geometricPrecision; image-rendering:optimizeQuality; fill-rule:evenodd; clip-rule:evenodd" xmlns:xlink="http://www.w3.org/1999/xlink">
<g><path style="opacity:1" fill="#fdfefe" d="M -0.5,-0.5 C 49.5,-0.5 99.5,-0.5 149.5,-0.5C 149.5,49.5 149.5,99.5 149.5,149.5C 99.5,149.5 49.5,149.5 -0.5,149.5C -0.5,99.5 -0.5,49.5 -0.5,-0.5 Z"/></g>
<g><path style="opacity:1" fill="#53bff9" d="M 58.5,31.5 C 60.1667,31.5 61.8333,31.5 63.5,31.5C 64.416,35.7923 64.416,40.1256 63.5,44.5C 62.1001,45.0998 61.1001,46.0998 60.5,47.5C 58.8235,46.8166 58.1568,45.4832 58.5,43.5C 57.5,43.5 56.5,43.5 55.5,43.5C 55.5,40.8333 55.5,38.1667 55.5,35.5C 56.5,35.5 57.5,35.5 58.5,35.5C 58.2148,37.288 58.5481,38.9547 59.5,40.5C 61.2825,38.9775 61.9492,36.9775 61.5,34.5C 60.5,34.5 59.5,34.5 58.5,34.5C 58.5,33.5 58.5,32.5 58.5,31.5 Z"/></g>
<g><path style="opacity:1" fill="#5ac0ee" d="M 58.5,31.5 C 58.5,32.5 58.5,33.5 58.5,34.5C 59.5,34.5 60.5,34.5 61.5,34.5C 61.9492,36.9775 61.2825,38.9775 59.5,40.5C 58.5481,38.9547 58.2148,37.288 58.5,35.5C 57.5,35.5 56.5,35.5 55.5,35.5C 55.5,38.1667 55.5,40.8333 55.5,43.5C 56.5,43.5 57.5,43.5 58.5,43.5C 58.1568,45.4832 58.8235,46.8166 60.5,47.5C 58.3412,53.1511 55.6745,58.4844 52.5,63.5C 49.8275,48.8395 47.1608,48.8395 44.5,63.5C 43.5,63.5 42.5,63.5 41.5,63.5C 45.3906,52.8331 50.0573,42.4998 55.5,32.5C 56.325,31.6143 57.325,31.281 58.5,31.5 Z"/></g>
<g><path style="opacity:1" fill="#5ebfed" d="M 90.5,31.5 C 91.8221,31.33 92.9887,31.6634 94,32.5C 98.5294,42.8852 103.029,53.2185 107.5,63.5C 104.775,59.7324 102.275,55.7324 100,51.5C 99.2189,52.7287 98.7189,54.062 98.5,55.5C 100.449,57.7918 101.449,60.4585 101.5,63.5C 100.5,63.5 99.5,63.5 98.5,63.5C 99.5774,68.0664 101.244,72.3997 103.5,76.5C 103.376,77.1067 103.043,77.44 102.5,77.5C 100.153,72.7594 97.8195,68.0928 95.5,63.5C 93.0383,57.2432 90.0383,51.2432 86.5,45.5C 82.957,49.5686 81.457,54.2352 82,59.5C 85.0617,64.9533 87.5617,70.6199 89.5,76.5C 88.5416,76.0472 87.7083,75.3805 87,74.5C 85.3204,69.5014 82.8204,65.0014 79.5,61C 80.8333,57.3333 80.8333,53.6667 79.5,50C 81.1975,47.0402 82.1975,43.8735 82.5,40.5C 86.5398,38.8494 89.5398,40.0161 91.5,44C 92.7932,44.49 94.1266,44.6567 95.5,44.5C 93.49,40.4235 91.8233,36.0901 90.5,31.5 Z"/></g>
<g><path style="opacity:1" fill="#58bbfa" d="M 64.5,31.5 C 69.2473,31.284 71.5806,33.6173 71.5,38.5C 71.7776,41.2903 71.1109,43.7903 69.5,46C 71.992,48.984 73.6587,52.3173 74.5,56C 73.5813,60.1463 72.248,63.9796 70.5,67.5C 69.6204,65.8632 68.9537,64.0299 68.5,62C 70.3067,58.6863 70.8067,55.1863 70,51.5C 68.3391,48.8414 66.6724,46.1748 65,43.5C 64.8435,41.1046 65.3435,38.7712 66.5,36.5C 65.8127,34.8472 65.146,33.1806 64.5,31.5 Z"/></g>
<g><path style="opacity:1" fill="#53bff6" d="M 52.5,63.5 C 51.6421,67.548 49.9755,71.2147 47.5,74.5C 46.5041,74.4142 45.6708,74.7476 45,75.5C 44.4888,77.8782 43.8221,80.2115 43,82.5C 41.6667,80.5 40.3333,78.5 39,76.5C 39.9629,72.2922 40.7962,67.9588 41.5,63.5C 42.5,63.5 43.5,63.5 44.5,63.5C 47.1608,48.8395 49.8275,48.8395 52.5,63.5 Z"/></g>
<g><path style="opacity:1" fill="#4fbffa" d="M 107.5,63.5 C 107.984,66.7977 106.984,69.4643 104.5,71.5C 105.762,74.022 106.429,76.6887 106.5,79.5C 107.5,79.5 108.5,79.5 109.5,79.5C 109.778,81.3464 109.111,82.6798 107.5,83.5C 106.333,81.9208 105,80.5875 103.5,79.5C 103.167,78.8333 102.833,78.1667 102.5,77.5C 103.043,77.44 103.376,77.1067 103.5,76.5C 101.244,72.3997 99.5774,68.0664 98.5,63.5C 99.5,63.5 100.5,63.5 101.5,63.5C 101.449,60.4585 100.449,57.7918 98.5,55.5C 98.7189,54.062 99.2189,52.7287 100,51.5C 102.275,55.7324 104.775,59.7324 107.5,63.5 Z"/></g>
<g><path style="opacity:1" fill="#5dc1ed" d="M 63.5,31.5 C 63.8333,31.5 64.1667,31.5 64.5,31.5C 65.146,33.1806 65.8127,34.8472 66.5,36.5C 65.3435,38.7712 64.8435,41.1046 65,43.5C 66.6724,46.1748 68.3391,48.8414 70,51.5C 70.8067,55.1863 70.3067,58.6863 68.5,62C 68.9537,64.0299 69.6204,65.8632 70.5,67.5C 72.5061,68.4851 74.1727,69.8184 75.5,71.5C 74.5041,71.4142 73.6708,71.7476 73,72.5C 72.6264,74.4913 71.793,76.158 70.5,77.5C 70.6399,75.8762 69.9733,74.7096 68.5,74C 69.3802,72.6439 69.7135,71.1439 69.5,69.5C 68.1667,69.5 66.8333,69.5 65.5,69.5C 65.8134,72.2469 65.48,74.9135 64.5,77.5C 63.7022,75.9223 63.2022,74.2556 63,72.5C 62.4586,75.6146 60.9586,77.948 58.5,79.5C 61.5828,72.0958 64.5828,64.5958 67.5,57C 66.2931,52.7627 64.9597,48.596 63.5,44.5C 64.416,40.1256 64.416,35.7923 63.5,31.5 Z"/></g>
<g><path style="opacity:1" fill="#56bff4" d="M 90.5,31.5 C 91.8233,36.0901 93.49,40.4235 95.5,44.5C 94.1266,44.6567 92.7932,44.49 91.5,44C 89.5398,40.0161 86.5398,38.8494 82.5,40.5C 82.1975,43.8735 81.1975,47.0402 79.5,50C 80.8333,53.6667 80.8333,57.3333 79.5,61C 82.8204,65.0014 85.3204,69.5014 87,74.5C 87.7083,75.3805 88.5416,76.0472 89.5,76.5C 92.5293,81.883 95.1959,87.5496 97.5,93.5C 97.4433,95.8845 97.7766,98.2178 98.5,100.5C 97.8333,102.167 97.1667,103.833 96.5,105.5C 96.8333,106.167 97.1667,106.833 97.5,107.5C 98.3267,105.838 99.4933,104.505 101,103.5C 101.497,106.146 101.664,108.813 101.5,111.5C 103.716,112.044 105.716,113.044 107.5,114.5C 108.833,115.5 108.833,116.5 107.5,117.5C 103.774,117.823 100.107,117.489 96.5,116.5C 93.194,108.868 89.5274,101.535 85.5,94.5C 82.459,86.7469 79.1257,79.0803 75.5,71.5C 74.1727,69.8184 72.5061,68.4851 70.5,67.5C 72.248,63.9796 73.5813,60.1463 74.5,56C 73.6587,52.3173 71.992,48.984 69.5,46C 71.1109,43.7903 71.7776,41.2903 71.5,38.5C 72.4793,39.7653 73.4793,41.0986 74.5,42.5C 76.4585,38.9198 78.1252,35.2532 79.5,31.5C 83.1667,31.5 86.8333,31.5 90.5,31.5 Z"/></g>
<g><path style="opacity:1" fill="#ddfbfe" d="M 95.5,63.5 C 97.8195,68.0928 100.153,72.7594 102.5,77.5C 102.833,78.1667 103.167,78.8333 103.5,79.5C 102.5,79.5 101.5,79.5 100.5,79.5C 99.824,75.8133 98.324,72.4799 96,69.5C 95.5045,67.5273 95.3379,65.5273 95.5,63.5 Z"/></g>
<g><path style="opacity:1" fill="#63bee9" d="M 41.5,63.5 C 40.7962,67.9588 39.9629,72.2922 39,76.5C 40.3333,78.5 41.6667,80.5 43,82.5C 43.8221,80.2115 44.4888,77.8782 45,75.5C 45.6708,74.7476 46.5041,74.4142 47.5,74.5C 44.9325,81.0587 41.9325,87.3921 38.5,93.5C 38.3471,90.4228 39.0137,87.5895 40.5,85C 40.0548,83.5531 39.3881,82.2197 38.5,81C 40.0446,79.3594 39.7113,78.1928 37.5,77.5C 35.4972,79.9442 33.4972,82.2775 31.5,84.5C 34.0512,77.0665 37.3846,70.0665 41.5,63.5 Z"/></g>
<g><path style="opacity:1" fill="#f2fcfb" d="M 63.5,44.5 C 64.9597,48.596 66.2931,52.7627 67.5,57C 64.5828,64.5958 61.5828,72.0958 58.5,79.5C 56.2816,81.6514 54.9483,84.3181 54.5,87.5C 51.3777,92.0806 49.0444,97.0806 47.5,102.5C 46.3995,103.605 45.7329,104.938 45.5,106.5C 43.0431,109.751 41.3764,113.418 40.5,117.5C 44.5546,117.824 48.5546,117.491 52.5,116.5C 55.4537,110.928 58.1204,105.261 60.5,99.5C 60.953,97.4348 61.953,95.7682 63.5,94.5C 63.6602,96.1992 63.4935,97.8659 63,99.5C 59.7326,104.629 57.2326,110.129 55.5,116C 54.0243,118.484 51.8577,119.984 49,120.5C 45.3415,120.226 42.0081,119.226 39,117.5C 38.3333,116.167 38.3333,114.833 39,113.5C 39.9778,109.356 41.4778,105.356 43.5,101.5C 42.5116,98.8523 40.8449,96.8523 38.5,95.5C 38.5,94.8333 38.5,94.1667 38.5,93.5C 41.9325,87.3921 44.9325,81.0587 47.5,74.5C 49.9755,71.2147 51.6421,67.548 52.5,63.5C 55.6745,58.4844 58.3412,53.1511 60.5,47.5C 61.1001,46.0998 62.1001,45.0998 63.5,44.5 Z"/></g>
<g><path style="opacity:1" fill="#56bef5" d="M 70.5,77.5 C 67.8841,83.0632 65.5507,88.7299 63.5,94.5C 61.953,95.7682 60.953,97.4348 60.5,99.5C 58.1423,101.168 56.4757,103.501 55.5,106.5C 54.675,107.386 53.675,107.719 52.5,107.5C 52.6604,104.116 52.327,100.783 51.5,97.5C 53.0911,94.3248 54.0911,90.9915 54.5,87.5C 54.9483,84.3181 56.2816,81.6514 58.5,79.5C 60.9586,77.948 62.4586,75.6146 63,72.5C 63.2022,74.2556 63.7022,75.9223 64.5,77.5C 65.48,74.9135 65.8134,72.2469 65.5,69.5C 66.8333,69.5 68.1667,69.5 69.5,69.5C 69.7135,71.1439 69.3802,72.6439 68.5,74C 69.9733,74.7096 70.6399,75.8762 70.5,77.5 Z"/></g>
<g><path style="opacity:1" fill="#5abff1" d="M 107.5,63.5 C 116.552,81.1048 125.219,98.9381 133.5,117C 129.129,117.828 124.795,117.661 120.5,116.5C 115.117,104.066 109.451,91.7329 103.5,79.5C 105,80.5875 106.333,81.9208 107.5,83.5C 109.111,82.6798 109.778,81.3464 109.5,79.5C 108.5,79.5 107.5,79.5 106.5,79.5C 106.429,76.6887 105.762,74.022 104.5,71.5C 106.984,69.4643 107.984,66.7977 107.5,63.5 Z"/></g>
<g><path style="opacity:1" fill="#5bc4ed" d="M 97.5,93.5 C 101.577,100.133 104.911,107.133 107.5,114.5C 105.716,113.044 103.716,112.044 101.5,111.5C 101.664,108.813 101.497,106.146 101,103.5C 99.4933,104.505 98.3267,105.838 97.5,107.5C 97.1667,106.833 96.8333,106.167 96.5,105.5C 97.1667,103.833 97.8333,102.167 98.5,100.5C 97.7766,98.2178 97.4433,95.8845 97.5,93.5 Z"/></g>
<g><path style="opacity:1" fill="#65bbe6" d="M 54.5,87.5 C 54.0911,90.9915 53.0911,94.3248 51.5,97.5C 52.327,100.783 52.6604,104.116 52.5,107.5C 53.675,107.719 54.675,107.386 55.5,106.5C 56.4757,103.501 58.1423,101.168 60.5,99.5C 58.1204,105.261 55.4537,110.928 52.5,116.5C 48.5546,117.491 44.5546,117.824 40.5,117.5C 41.3764,113.418 43.0431,109.751 45.5,106.5C 44.8617,108.46 44.8617,110.293 45.5,112C 43.3688,113.888 43.3688,115.388 45.5,116.5C 47.4594,116.125 49.2927,115.459 51,114.5C 51.6099,110.764 51.2765,107.097 50,103.5C 49.3292,102.748 48.4959,102.414 47.5,102.5C 49.0444,97.0806 51.3777,92.0806 54.5,87.5 Z"/></g>
<g><path style="opacity:1" fill="#e6f9fa" d="M 85.5,94.5 C 89.5274,101.535 93.194,108.868 96.5,116.5C 100.107,117.489 103.774,117.823 107.5,117.5C 102.985,118.812 98.3181,118.812 93.5,117.5C 91.155,115.486 89.155,113.153 87.5,110.5C 87.8333,110.167 88.1667,109.833 88.5,109.5C 89.5321,111.04 90.8654,111.54 92.5,111C 91.1437,108.602 89.9771,106.102 89,103.5C 87.9887,102.663 86.8221,102.33 85.5,102.5C 84.1613,103.37 84.1613,100.703 85.5,94.5 Z"/></g>
<g><path style="opacity:1" fill="#4dc1f8" d="M 47.5,102.5 C 48.4959,102.414 49.3292,102.748 50,103.5C 51.2765,107.097 51.6099,110.764 51,114.5C 49.2927,115.459 47.4594,116.125 45.5,116.5C 43.3688,115.388 43.3688,113.888 45.5,112C 44.8617,110.293 44.8617,108.46 45.5,106.5C 45.7329,104.938 46.3995,103.605 47.5,102.5 Z"/></g>
<g><path style="opacity:1" fill="#58bff3" d="M 38.5,93.5 C 38.5,94.1667 38.5,94.8333 38.5,95.5C 34.4234,102.019 31.0901,109.019 28.5,116.5C 24.2172,117.492 19.8839,117.826 15.5,117.5C 20.5805,106.34 25.9138,95.3399 31.5,84.5C 33.4972,82.2775 35.4972,79.9442 37.5,77.5C 39.7113,78.1928 40.0446,79.3594 38.5,81C 39.3881,82.2197 40.0548,83.5531 40.5,85C 39.0137,87.5895 38.3471,90.4228 38.5,93.5 Z"/></g>
</svg>
