<?xml version="1.0" standalone="no"?>
<!DOCTYPE svg PUBLIC "-//W3C//DTD SVG 20010904//EN"
 "http://www.w3.org/TR/2001/REC-SVG-20010904/DTD/svg10.dtd">
<svg version="1.0" xmlns="http://www.w3.org/2000/svg"
 width="300.000000pt" height="300.000000pt" viewBox="0 0 300.000000 300.000000"
 preserveAspectRatio="xMidYMid meet">
<metadata>
Created by potrace 1.10, written by Peter Selinger 2001-2011
</metadata>
<g transform="translate(0.000000,300.000000) scale(0.100000,-0.100000)"
fill="#000000" stroke="none">
<path d="M978 2142 c-62 -3 -79 -19 -25 -24 l32 -3 3 -189 c3 -201 -1 -216
-44 -216 -13 0 -24 -4 -24 -9 0 -4 43 -8 95 -8 52 0 95 4 95 9 0 4 -11 8 -24
8 -14 0 -28 5 -32 12 -4 6 -6 102 -5 214 1 111 -1 204 -6 206 -4 1 -34 2 -65
0z"/>
<path d="M2368 2137 c-5 -10 -8 -32 -8 -48 0 -37 -40 -79 -74 -79 -14 0 -28
-4 -31 -10 -4 -6 8 -10 29 -10 l36 0 0 -130 c0 -118 2 -131 21 -149 50 -47
131 -27 148 36 13 46 14 73 2 73 -5 0 -12 -20 -15 -44 -8 -52 -24 -69 -63 -64
l-28 3 -3 138 -3 137 51 0 c30 0 50 4 50 11 0 8 -17 10 -50 7 l-49 -5 -3 76
c-2 46 -6 69 -10 58z"/>
<path d="M476 2131 c5 -5 23 -11 39 -13 l30 -3 0 -200 0 -200 -30 -3 c-16 -2
-33 -7 -38 -11 -13 -12 265 -11 306 1 22 7 52 24 68 39 25 23 29 35 29 77 0
44 -4 53 -31 77 -18 14 -45 29 -60 32 -34 6 -30 18 8 28 73 18 96 90 46 137
-16 14 -43 30 -62 37 -41 13 -319 15 -305 2z m298 -32 c36 -28 37 -89 1 -124
-20 -21 -34 -25 -79 -25 -30 0 -61 -3 -70 -6 -14 -5 -16 5 -16 73 0 48 5 84
12 91 21 21 122 15 152 -9z m10 -198 c50 -47 42 -147 -14 -176 -35 -18 -131
-20 -148 -3 -8 8 -12 47 -12 111 l0 99 74 -4 c62 -3 79 -7 100 -27z"/>
<path d="M2124 2115 c-14 -37 26 -69 53 -42 22 22 8 57 -23 57 -14 0 -27 -7
-30 -15z"/>
<path d="M1565 2013 c-34 -9 -63 -33 -75 -63 -20 -47 3 -81 75 -108 99 -37
110 -45 113 -79 4 -38 -26 -63 -76 -63 -42 0 -99 52 -108 99 -11 54 -24 33
-24 -39 0 -68 12 -92 23 -49 l6 21 26 -21 c31 -24 84 -36 114 -26 36 11 79 54
86 85 11 52 -14 82 -101 115 -84 33 -106 54 -88 83 32 50 128 28 148 -35 18
-54 26 -49 26 15 0 34 -4 62 -9 62 -5 0 -11 -4 -13 -10 -2 -6 -19 -4 -43 5
-42 15 -49 16 -80 8z"/>
<path d="M1870 2013 c-42 -13 -64 -31 -77 -61 -20 -48 2 -85 64 -108 97 -35
112 -43 121 -61 13 -25 -2 -61 -32 -74 -58 -27 -135 20 -151 91 -12 53 -25 32
-25 -40 0 -68 12 -92 23 -49 l6 21 26 -21 c58 -45 132 -36 180 21 53 62 27
112 -79 153 -44 17 -84 38 -90 48 -14 22 2 49 38 62 38 13 96 -19 110 -62 18
-53 26 -49 26 15 0 34 -4 62 -9 62 -5 0 -11 -4 -13 -10 -2 -6 -19 -4 -43 5
-43 15 -52 16 -75 8z"/>
<path d="M1201 1973 c-76 -74 -77 -179 0 -247 46 -42 96 -54 147 -34 36 13 82
67 82 94 0 26 -16 14 -29 -21 -20 -55 -86 -80 -144 -54 -32 14 -45 39 -53 98
l-7 51 118 0 117 0 -7 33 c-18 82 -58 117 -134 117 -44 0 -55 -4 -90 -37z
m145 7 c17 -15 28 -80 14 -94 -6 -6 -42 -11 -81 -12 l-71 -1 5 41 c8 54 47 90
90 82 17 -3 36 -11 43 -16z"/>
<path d="M2060 2001 c0 -5 12 -11 28 -13 l27 -3 0 -135 0 -135 -27 -3 c-16 -2
-28 -7 -28 -11 0 -4 43 -8 95 -8 52 0 95 3 95 8 0 4 -15 9 -32 11 l-33 3 -3
148 -3 147 -59 0 c-33 0 -60 -4 -60 -9z"/>
<path d="M1251 1570 c-273 -27 -612 -116 -787 -209 -50 -26 -27 -27 34 -1 46
19 128 44 147 45 6 0 12 2 15 5 3 3 17 11 32 17 20 9 29 9 34 1 4 -7 3 -8 -4
-4 -7 4 -12 2 -12 -3 0 -6 -3 -10 -7 -9 -5 1 -18 -3 -31 -10 -12 -7 -26 -10
-31 -8 -7 5 -21 -15 -21 -29 0 -1 48 13 108 32 211 67 476 123 586 123 20 0
36 4 36 8 0 7 -83 2 -220 -12 -37 -4 -41 -3 -25 6 11 6 33 12 50 14 16 1 66 5
110 10 44 4 172 8 285 8 123 0 185 2 155 7 -89 13 -357 18 -454 9z m-261 -70
c0 -13 -41 -23 -76 -17 -25 3 -24 4 8 6 20 0 40 6 43 11 8 13 25 13 25 0z"/>
<path d="M1778 1541 c12 -6 22 -14 22 -20 0 -5 21 -12 48 -16 232 -33 595
-169 770 -288 41 -27 62 -31 48 -9 -8 13 -195 121 -258 150 -74 34 -208 88
-263 107 -130 43 -440 107 -367 76z"/>
<path d="M1418 1533 c18 -2 45 -2 60 0 15 2 0 4 -33 4 -33 0 -45 -2 -27 -4z"/>
<path d="M580 1372 c0 -5 -16 -17 -35 -27 -19 -11 -33 -21 -31 -23 2 -2 19 5
38 14 18 10 36 18 41 19 11 0 10 19 -2 23 -6 2 -11 0 -11 -6z"/>
<path d="M576 1309 c-38 -16 -77 -27 -86 -24 -9 3 -25 -2 -36 -11 -18 -15 -18
-15 3 -5 34 17 42 12 10 -5 -16 -9 -31 -13 -34 -10 -10 10 -64 -24 -57 -36 4
-6 3 -8 -4 -4 -11 6 -62 -12 -62 -23 0 -3 4 -12 9 -19 6 -11 21 -5 67 24 32
21 111 62 174 91 122 56 132 71 16 22z"/>
<path d="M491 1141 c-16 -28 13 -51 36 -28 18 18 11 47 -11 47 -9 0 -20 -9
-25 -19z"/>
<path d="M644 1145 c-8 -20 4 -35 26 -35 25 0 35 17 20 35 -16 19 -39 19 -46
0z"/>
<path d="M927 1154 c-12 -12 -8 -42 6 -47 21 -8 39 8 35 29 -3 19 -29 30 -41
18z"/>
<path d="M1201 1147 c-8 -10 -7 -19 4 -33 13 -18 15 -18 31 -2 18 18 13 48 -9
48 -8 0 -20 -6 -26 -13z"/>
<path d="M1587 1153 c-13 -12 -7 -41 10 -47 21 -9 46 16 37 37 -6 17 -35 23
-47 10z"/>
<path d="M1867 1154 c-12 -12 -8 -42 6 -47 21 -8 39 8 35 29 -3 19 -29 30 -41
18z"/>
<path d="M2141 1147 c-8 -10 -7 -19 4 -33 12 -17 15 -18 30 -3 17 17 11 49
-10 49 -7 0 -18 -6 -24 -13z"/>
<path d="M2416 1143 c-4 -9 0 -23 9 -32 13 -14 17 -14 32 1 13 14 14 20 3 32
-16 21 -36 20 -44 -1z"/>
<path d="M644 1035 c-8 -20 4 -35 26 -35 25 0 35 17 20 35 -16 19 -39 19 -46
0z"/>
<path d="M927 1044 c-12 -12 -8 -42 6 -47 21 -8 39 8 35 29 -3 19 -29 30 -41
18z"/>
<path d="M1311 1036 c-9 -11 -8 -18 5 -31 15 -15 19 -15 32 -1 17 17 10 46
-11 46 -8 0 -20 -6 -26 -14z"/>
<path d="M1476 1034 c-8 -21 1 -34 24 -34 25 0 35 17 20 35 -16 20 -36 19 -44
-1z"/>
<path d="M1757 1044 c-4 -4 -7 -16 -7 -26 0 -13 7 -18 26 -18 21 0 25 4 22 22
-3 23 -27 35 -41 22z"/>
<path d="M2030 1035 c-9 -11 -10 -19 -3 -26 17 -17 48 -6 48 16 0 25 -28 31
-45 10z"/>
<path d="M2306 1033 c-4 -9 0 -23 7 -30 12 -12 17 -12 31 2 13 13 14 20 5 31
-16 19 -35 18 -43 -3z"/>
<path d="M2416 1033 c-5 -11 0 -22 11 -31 15 -11 20 -10 30 4 9 13 10 21 2 31
-16 18 -36 16 -43 -4z"/>
<path d="M497 934 c-10 -10 -9 -42 2 -48 18 -11 42 6 39 28 -3 21 -28 33 -41
20z"/>
<path d="M927 934 c-13 -13 -7 -42 10 -48 21 -8 36 6 31 30 -3 19 -29 30 -41
18z"/>
<path d="M1476 923 c-4 -9 0 -23 9 -32 15 -15 18 -14 30 3 11 14 12 23 4 33
-16 18 -36 16 -43 -4z"/>
<path d="M1757 934 c-12 -12 -8 -42 6 -47 21 -8 39 8 35 29 -3 19 -29 30 -41
18z"/>
<path d="M2306 923 c-4 -9 0 -23 9 -32 13 -14 17 -14 32 1 13 14 14 20 3 32
-16 21 -36 20 -44 -1z"/>
</g>
</svg>
