<svg id="svg" version="1.1" xmlns="http://www.w3.org/2000/svg" xmlns:xlink="http://www.w3.org/1999/xlink" viewBox="56 128.37 289.63 116.47"><g id="svgg"><path id="path0" d="M185.000 130.400 C 184.864 130.620,184.230 130.800,183.590 130.800 C 182.951 130.800,181.657 131.043,180.714 131.339 C 179.771 131.636,178.010 132.103,176.800 132.376 C 171.559 133.561,165.615 136.147,159.493 139.905 L 155.985 142.057 153.293 139.584 C 144.342 131.362,136.908 130.088,127.031 135.084 C 118.943 139.174,111.433 147.376,103.117 161.200 C 99.951 166.464,96.271 173.202,91.101 183.200 C 89.452 186.390,86.747 191.610,85.090 194.800 C 72.950 218.178,70.971 223.765,69.004 240.200 C 68.872 241.300,68.675 242.785,68.564 243.500 L 68.364 244.800 76.382 244.800 C 81.461 244.800,84.400 244.653,84.400 244.400 C 84.400 244.180,85.210 244.000,86.200 244.000 C 87.190 244.000,88.000 243.820,88.000 243.600 C 88.000 243.380,88.257 243.200,88.571 243.200 C 89.789 243.200,95.562 239.909,97.671 238.013 C 101.767 234.328,102.470 233.208,110.653 217.327 C 115.436 208.043,115.565 208.800,109.200 208.800 C 103.303 208.800,103.461 208.924,105.129 205.600 C 111.330 193.246,123.934 174.330,133.248 163.400 C 140.763 154.582,149.914 145.475,152.713 144.029 C 153.707 143.516,154.291 144.460,156.029 149.388 C 156.910 151.886,157.329 152.018,159.064 150.345 L 160.459 149.000 161.198 149.905 C 161.604 150.403,162.876 152.563,164.025 154.705 C 167.341 160.888,167.254 160.800,170.027 160.800 C 171.808 160.800,172.400 160.941,172.400 161.367 C 172.400 161.678,172.535 161.993,172.700 162.067 C 173.250 162.311,178.862 173.221,180.485 177.200 C 180.710 177.750,181.052 178.513,181.247 178.895 C 181.441 179.277,181.600 179.828,181.600 180.119 C 181.600 180.411,181.939 181.359,182.354 182.225 C 182.768 183.091,184.312 187.130,185.783 191.200 C 189.835 202.406,189.948 202.708,191.696 207.000 C 197.462 221.155,205.736 233.366,211.881 236.790 C 214.155 238.056,214.306 238.669,212.482 239.218 C 210.195 239.907,205.367 240.164,204.109 239.664 C 203.499 239.422,200.871 239.179,198.269 239.124 C 195.667 239.069,193.452 238.883,193.346 238.712 C 193.093 238.304,191.542 238.322,190.881 238.741 C 190.469 239.003,190.494 239.180,191.004 239.603 C 191.517 240.029,191.621 240.032,191.523 239.618 C 191.455 239.333,191.631 239.016,191.913 238.913 C 192.194 238.809,192.398 238.877,192.365 239.062 C 192.203 239.979,192.455 240.465,192.987 240.260 C 193.310 240.136,193.683 240.210,193.815 240.424 C 193.947 240.638,194.251 240.692,194.489 240.545 C 194.733 240.394,194.810 240.461,194.664 240.696 C 194.287 241.307,195.531 241.665,196.405 241.197 C 196.885 240.941,197.237 240.936,197.391 241.186 C 197.543 241.431,209.855 241.573,230.915 241.573 L 264.200 241.573 266.992 240.611 C 268.527 240.082,269.847 239.458,269.925 239.225 C 270.003 238.991,270.367 238.796,270.733 238.791 C 271.100 238.786,271.850 238.430,272.400 238.000 C 272.950 237.570,273.625 237.214,273.900 237.209 C 274.175 237.204,274.400 237.059,274.400 236.886 C 274.400 236.714,274.949 236.248,275.620 235.852 C 276.291 235.455,277.636 234.358,278.608 233.413 C 279.580 232.468,280.651 231.589,280.988 231.460 C 281.325 231.331,281.600 231.055,281.600 230.847 C 281.600 230.318,284.292 227.600,284.817 227.600 C 285.053 227.600,285.136 227.420,285.000 227.200 C 284.864 226.980,284.943 226.800,285.176 226.800 C 285.409 226.800,285.555 226.575,285.500 226.300 C 285.445 226.025,285.625 225.845,285.900 225.900 C 286.175 225.955,286.400 225.742,286.400 225.427 C 286.400 225.112,286.794 224.729,287.275 224.576 C 289.114 223.993,286.952 223.198,284.240 223.462 C 281.810 223.698,278.826 225.478,275.274 228.811 C 274.285 229.738,273.609 229.675,274.481 228.737 C 278.353 224.571,287.569 208.231,293.282 195.400 C 293.870 194.080,294.829 191.939,295.414 190.642 C 295.998 189.346,296.707 187.636,296.990 186.842 C 297.537 185.309,299.178 181.605,300.438 179.062 C 300.857 178.216,301.200 177.271,301.200 176.962 C 301.200 176.653,301.336 176.400,301.502 176.400 C 301.669 176.400,302.040 175.815,302.329 175.100 C 302.617 174.385,303.021 173.487,303.226 173.105 C 303.432 172.723,303.600 172.318,303.600 172.205 C 303.600 171.913,280.597 171.949,279.833 172.243 C 279.485 172.376,279.200 172.736,279.200 173.043 C 279.200 173.349,279.020 173.600,278.800 173.600 C 278.580 173.600,278.400 173.920,278.400 174.312 C 278.400 174.703,278.040 175.283,277.600 175.600 C 277.160 175.917,276.800 176.414,276.800 176.705 C 276.800 176.996,276.440 177.620,276.000 178.092 C 275.560 178.564,275.200 179.187,275.200 179.475 C 275.200 179.764,275.020 180.000,274.800 180.000 C 274.580 180.000,274.400 180.270,274.400 180.600 C 274.400 180.930,274.250 181.200,274.068 181.200 C 273.885 181.200,273.485 181.695,273.180 182.300 C 272.875 182.905,270.868 185.771,268.722 188.670 C 263.321 195.960,261.526 199.537,258.416 209.200 C 256.376 215.538,251.084 226.559,248.146 230.590 L 247.293 231.761 246.050 229.298 C 245.366 227.944,244.352 225.627,243.796 224.150 C 243.239 222.672,242.585 221.222,242.340 220.928 C 242.085 220.621,241.982 219.632,242.098 218.604 C 242.209 217.620,242.143 216.912,241.950 217.031 C 241.758 217.150,241.600 216.607,241.600 215.824 C 241.600 214.825,241.421 214.400,241.000 214.400 C 240.670 214.400,240.394 214.175,240.387 213.900 C 240.380 213.595,240.168 213.672,239.843 214.100 C 239.396 214.690,238.640 214.800,235.056 214.800 C 232.715 214.800,230.800 214.875,230.800 214.968 C 230.800 215.948,232.684 222.300,233.801 225.089 C 234.554 226.968,234.522 227.038,232.086 228.750 C 230.462 229.893,230.389 229.840,227.403 225.352 C 224.291 220.675,221.039 213.980,217.617 205.200 C 216.031 201.130,214.399 196.990,213.990 196.000 C 213.297 194.318,212.870 192.984,210.727 185.800 C 210.268 184.260,209.736 182.687,209.546 182.305 C 209.356 181.923,209.200 181.188,209.200 180.672 C 209.200 180.156,209.077 179.610,208.926 179.459 C 208.526 179.059,207.613 176.317,207.606 175.495 C 207.603 175.107,207.438 174.477,207.239 174.095 C 207.040 173.713,206.656 172.590,206.384 171.600 C 205.663 168.972,202.035 158.011,201.421 156.604 C 201.132 155.942,200.491 154.410,199.997 153.200 C 199.503 151.990,198.671 150.111,198.149 149.025 C 197.627 147.939,197.200 146.904,197.200 146.725 C 197.200 146.546,199.169 146.400,201.576 146.400 C 203.983 146.400,206.044 146.252,206.156 146.071 C 206.364 145.734,205.389 143.585,204.857 143.209 C 204.695 143.094,204.128 142.370,203.598 141.600 C 201.142 138.032,196.694 134.639,192.263 132.952 C 190.688 132.352,188.608 131.443,187.640 130.931 C 185.672 129.889,185.355 129.826,185.000 130.400 " stroke="none" fill="#0c5b99" fill-rule="evenodd"/><path id="path1" d="M325.703 131.923 C 324.770 133.835,323.215 136.930,322.247 138.800 C 320.014 143.114,318.400 146.629,318.400 147.175 C 318.400 147.434,319.491 147.600,321.200 147.600 C 323.760 147.600,324.631 147.963,323.600 148.600 C 323.380 148.736,323.200 149.194,323.200 149.618 C 323.200 150.477,319.912 160.653,318.230 165.000 C 317.634 166.540,316.867 168.520,316.525 169.400 C 316.184 170.280,315.768 171.360,315.602 171.800 C 315.436 172.240,315.097 173.103,314.850 173.719 C 314.602 174.334,314.400 175.009,314.400 175.219 C 314.400 175.814,318.398 175.696,318.412 175.100 C 318.419 174.823,318.606 174.912,318.832 175.300 C 319.056 175.685,319.456 175.997,319.720 175.994 C 320.063 175.989,320.052 175.894,319.681 175.659 C 319.273 175.400,319.311 175.209,319.858 174.765 C 320.307 174.400,320.447 174.377,320.253 174.700 C 320.088 174.975,320.143 175.200,320.376 175.200 C 320.609 175.200,320.800 174.790,320.800 174.288 C 320.800 173.787,321.156 173.120,321.591 172.806 C 322.173 172.387,322.252 172.154,321.891 171.924 C 321.544 171.704,321.597 171.610,322.073 171.606 C 322.795 171.600,323.413 170.268,323.002 169.604 C 322.865 169.382,322.988 169.200,323.276 169.199 C 323.564 169.199,324.336 168.164,324.992 166.899 C 325.647 165.635,326.502 164.251,326.892 163.825 C 327.281 163.398,327.604 162.858,327.609 162.625 C 327.614 162.391,327.970 161.750,328.400 161.200 C 328.830 160.650,329.186 159.885,329.191 159.500 C 329.196 159.115,329.380 158.800,329.600 158.800 C 329.820 158.800,330.000 158.519,330.000 158.176 C 330.000 157.833,330.158 157.650,330.351 157.770 C 330.545 157.889,330.801 157.493,330.922 156.890 C 331.043 156.286,331.604 155.254,332.170 154.596 C 332.736 153.938,333.199 153.167,333.200 152.883 C 333.200 152.599,333.560 151.980,334.000 151.508 C 334.440 151.036,334.800 150.406,334.800 150.108 C 334.800 149.810,335.160 149.180,335.600 148.708 C 336.040 148.236,336.400 147.606,336.400 147.308 C 336.400 147.010,336.760 146.380,337.200 145.908 C 337.640 145.436,338.000 144.723,338.000 144.325 C 338.000 143.926,338.180 143.600,338.400 143.600 C 338.620 143.600,338.800 143.343,338.800 143.029 C 338.800 142.714,339.043 142.215,339.339 141.918 C 339.636 141.622,340.310 140.439,340.837 139.289 C 341.364 138.140,341.931 137.200,342.098 137.200 C 342.264 137.200,342.400 136.930,342.400 136.600 C 342.400 136.270,342.580 136.000,342.800 136.000 C 343.020 136.000,343.200 135.590,343.200 135.088 C 343.200 134.587,343.560 133.917,344.000 133.600 C 344.440 133.283,344.800 132.714,344.800 132.335 C 344.800 131.957,344.980 131.536,345.200 131.400 C 345.420 131.264,345.600 130.533,345.600 129.776 L 345.600 128.400 336.500 128.423 L 327.400 128.446 325.703 131.923 M138.200 130.400 C 138.336 130.620,139.022 130.806,139.724 130.814 C 140.426 130.821,142.530 131.360,144.400 132.011 C 148.205 133.335,149.505 133.454,151.340 132.643 C 152.033 132.336,152.960 131.952,153.400 131.788 C 154.443 131.399,153.104 130.940,150.400 130.759 C 149.410 130.693,150.760 130.531,153.400 130.400 C 157.226 130.209,156.147 130.145,148.076 130.080 C 141.409 130.027,138.037 130.137,138.200 130.400 M187.400 130.400 C 187.536 130.620,188.177 130.800,188.824 130.800 C 189.471 130.800,190.000 130.963,190.000 131.163 C 190.000 131.362,190.957 131.827,192.127 132.195 C 197.412 133.857,204.502 139.934,207.534 145.400 C 207.900 146.060,208.290 146.690,208.400 146.800 C 209.113 147.513,213.600 156.337,213.600 157.027 C 213.600 157.342,213.738 157.600,213.906 157.600 C 214.074 157.600,214.519 158.310,214.894 159.177 L 215.578 160.754 220.590 160.877 C 224.398 160.970,225.601 160.880,225.601 160.500 C 225.600 160.225,225.735 160.021,225.900 160.047 C 226.703 160.174,226.849 159.939,226.349 159.323 C 225.876 158.740,225.883 158.693,226.400 158.982 C 226.888 159.255,226.907 159.217,226.500 158.779 C 226.225 158.482,226.000 157.931,226.000 157.553 C 226.000 157.176,225.822 156.807,225.603 156.733 C 225.385 156.660,225.167 156.118,225.119 155.529 C 225.070 154.940,224.909 154.533,224.761 154.624 C 224.483 154.796,223.869 153.268,223.971 152.659 C 224.002 152.471,223.564 151.526,222.997 150.559 C 222.430 149.591,222.085 148.800,222.231 148.800 C 222.376 148.800,222.014 148.170,221.427 147.400 C 220.840 146.630,220.503 145.997,220.680 145.994 C 220.856 145.991,220.820 145.856,220.599 145.694 C 220.379 145.532,219.947 144.911,219.639 144.314 C 219.331 143.716,218.899 143.339,218.678 143.475 C 218.457 143.612,218.398 143.527,218.546 143.288 C 218.694 143.048,218.362 142.398,217.808 141.844 C 217.253 141.290,216.800 140.558,216.800 140.218 C 216.800 139.867,216.455 139.600,216.000 139.600 C 215.551 139.600,215.200 139.333,215.200 138.993 C 215.200 138.659,214.590 137.804,213.844 137.093 C 212.485 135.796,212.026 135.447,209.800 134.018 C 209.140 133.594,208.383 133.057,208.117 132.824 C 207.851 132.591,207.452 132.400,207.229 132.400 C 207.006 132.400,206.183 132.040,205.400 131.600 C 204.464 131.074,203.234 130.800,201.811 130.800 C 200.621 130.800,199.536 130.620,199.400 130.400 C 199.253 130.162,196.721 130.000,193.153 130.000 C 189.255 130.000,187.239 130.140,187.400 130.400 M162.000 133.200 C 161.515 133.514,161.572 133.589,162.300 133.594 C 162.795 133.597,163.200 133.420,163.200 133.200 C 163.200 132.699,162.776 132.699,162.000 133.200 M149.200 153.920 L 144.200 154.039 142.859 156.920 C 142.121 158.504,141.373 160.160,141.196 160.600 C 140.485 162.368,139.493 165.097,138.942 166.800 C 138.622 167.790,138.200 168.960,138.005 169.400 C 136.580 172.615,135.118 179.200,135.829 179.200 C 136.298 179.200,137.200 178.035,137.200 177.429 C 137.200 177.083,137.363 176.800,137.562 176.800 C 138.033 176.800,140.933 172.766,140.933 172.112 C 140.933 171.837,141.263 171.507,141.667 171.379 C 142.070 171.251,142.400 170.928,142.400 170.661 C 142.400 170.395,142.760 169.917,143.200 169.600 C 143.640 169.283,144.000 168.859,144.000 168.659 C 144.000 168.458,144.329 168.003,144.730 167.647 C 145.132 167.291,145.711 166.426,146.017 165.724 C 146.324 165.022,146.895 164.364,147.287 164.261 C 147.679 164.159,148.000 163.788,148.000 163.437 C 148.000 163.087,148.241 162.800,148.536 162.800 C 148.830 162.800,149.279 162.345,149.532 161.789 C 149.786 161.233,150.265 160.673,150.597 160.546 C 150.928 160.419,151.200 160.053,151.200 159.734 C 151.200 159.414,151.380 159.264,151.600 159.400 C 151.820 159.536,152.000 159.455,152.000 159.221 C 152.000 158.987,152.436 158.415,152.970 157.951 C 153.541 157.455,153.854 156.839,153.732 156.454 C 153.582 155.980,153.625 155.939,153.890 156.307 C 154.166 156.690,154.510 156.528,155.298 155.644 C 156.370 154.440,156.379 153.879,155.321 154.286 C 154.990 154.413,154.602 154.355,154.460 154.158 C 154.317 153.961,151.950 153.854,149.200 153.920 M256.300 175.431 C 256.135 175.597,256.000 176.099,256.000 176.547 C 256.000 177.135,256.121 177.239,256.438 176.922 C 256.678 176.682,256.813 176.180,256.738 175.807 C 256.662 175.433,256.465 175.264,256.300 175.431 M255.206 179.300 C 255.211 180.028,255.286 180.085,255.600 179.600 C 256.101 178.824,256.101 178.400,255.600 178.400 C 255.380 178.400,255.203 178.805,255.206 179.300 M254.966 180.855 C 254.849 181.045,254.866 181.200,255.004 181.200 C 255.142 181.200,254.882 181.723,254.427 182.362 C 253.972 183.001,253.600 183.955,253.600 184.482 C 253.600 185.009,253.375 185.682,253.100 185.979 C 252.694 186.416,252.709 186.455,253.179 186.186 C 253.556 185.971,253.479 186.264,252.960 187.028 C 252.521 187.672,252.109 188.830,252.044 189.600 C 251.979 190.370,251.763 191.060,251.563 191.133 C 251.363 191.207,251.200 191.612,251.200 192.033 C 251.200 192.455,251.047 192.800,250.861 192.800 C 250.674 192.800,250.505 193.381,250.485 194.092 C 250.465 194.803,250.257 195.448,250.024 195.525 C 249.791 195.603,249.600 196.014,249.600 196.439 C 249.600 196.863,249.438 197.523,249.239 197.905 C 249.040 198.287,248.657 199.410,248.387 200.400 C 248.117 201.390,247.559 202.963,247.148 203.896 C 246.736 204.828,246.400 206.043,246.400 206.596 C 246.400 207.148,246.209 207.600,245.976 207.600 C 245.743 207.600,245.648 207.753,245.764 207.941 C 245.880 208.129,245.716 208.624,245.400 209.041 C 245.084 209.458,244.820 210.169,244.813 210.620 C 244.806 211.071,244.640 211.611,244.444 211.820 C 243.692 212.623,242.346 217.135,242.470 218.436 L 242.600 219.800 244.407 218.000 C 247.909 214.510,251.751 210.147,255.555 205.340 C 261.524 197.794,262.367 196.517,263.392 193.456 C 264.286 190.787,266.790 181.391,266.797 180.679 C 266.801 180.246,255.236 180.417,254.966 180.855 M74.963 194.600 C 74.633 195.040,74.459 195.195,74.577 194.945 C 74.695 194.695,74.445 194.400,74.021 194.290 C 73.569 194.171,73.160 194.326,73.030 194.665 C 72.907 194.986,72.984 195.133,73.205 194.997 C 73.422 194.863,73.600 194.943,73.600 195.176 C 73.600 195.409,73.409 195.600,73.176 195.600 C 72.943 195.600,72.852 195.761,72.974 195.958 C 73.096 196.155,72.915 196.424,72.572 196.555 C 72.230 196.687,72.061 196.976,72.198 197.197 C 72.335 197.419,72.257 197.600,72.024 197.600 C 71.791 197.600,71.600 197.881,71.600 198.224 C 71.600 198.567,71.420 198.736,71.200 198.600 C 70.966 198.455,70.800 198.870,70.800 199.600 C 70.800 200.450,70.651 200.755,70.332 200.558 C 70.022 200.366,69.946 200.483,70.108 200.905 C 70.243 201.255,70.093 201.757,69.776 202.020 C 69.459 202.283,69.200 202.825,69.200 203.225 C 69.200 203.625,69.020 204.064,68.800 204.200 C 68.580 204.336,68.400 204.797,68.400 205.224 C 68.400 205.651,68.175 206.003,67.900 206.006 C 67.567 206.010,67.600 206.142,68.000 206.400 C 68.400 206.658,68.433 206.790,68.100 206.794 C 67.825 206.797,67.600 207.070,67.600 207.400 C 67.600 207.730,67.420 208.000,67.200 208.000 C 66.980 208.000,66.800 208.435,66.800 208.967 C 66.800 209.498,66.612 209.996,66.382 210.073 C 66.152 210.149,65.934 210.614,65.897 211.106 C 65.860 211.598,65.688 212.000,65.515 212.000 C 65.342 212.000,65.200 212.265,65.200 212.588 C 65.200 212.911,64.843 213.811,64.407 214.588 C 63.898 215.495,63.783 216.000,64.087 216.000 C 64.447 216.000,64.446 216.114,64.080 216.480 C 63.816 216.744,63.600 217.295,63.600 217.704 C 63.600 218.113,63.420 218.336,63.200 218.200 C 62.967 218.056,62.800 218.455,62.800 219.153 C 62.800 219.813,62.620 220.464,62.400 220.600 C 62.180 220.736,62.000 221.197,62.000 221.624 C 62.000 222.051,61.820 222.400,61.600 222.400 C 61.380 222.400,61.200 222.990,61.200 223.711 C 61.200 224.432,60.936 225.399,60.614 225.859 C 60.042 226.675,59.184 229.497,59.080 230.900 C 59.052 231.285,58.887 231.600,58.714 231.600 C 58.541 231.600,58.400 232.320,58.400 233.200 C 58.400 234.080,58.220 234.800,58.000 234.800 C 57.780 234.800,57.600 235.149,57.600 235.576 C 57.600 236.003,57.420 236.464,57.200 236.600 C 56.980 236.736,56.800 237.647,56.800 238.624 C 56.800 239.601,56.620 240.400,56.400 240.400 C 56.180 240.400,56.000 241.390,56.000 242.600 L 56.000 244.800 57.505 244.800 C 58.970 244.800,59.052 244.721,60.509 241.900 C 61.333 240.305,63.361 236.480,65.016 233.400 C 72.054 220.303,73.172 217.941,74.388 213.600 C 74.666 212.610,75.031 211.350,75.200 210.800 C 75.369 210.250,75.726 208.990,75.993 208.000 C 76.260 207.010,76.640 205.887,76.839 205.505 C 77.038 205.123,77.200 204.528,77.200 204.182 C 77.200 203.837,77.731 201.899,78.381 199.877 C 80.387 193.633,80.431 194.100,77.815 193.939 C 75.932 193.823,75.465 193.931,74.963 194.600 " stroke="none" fill="#b0deeb" fill-rule="evenodd"/><path id="path2" d="M325.577 131.400 C 324.795 132.940,321.727 138.970,318.761 144.800 C 315.795 150.630,312.688 156.930,311.857 158.800 C 311.026 160.670,310.178 162.513,309.973 162.895 C 309.060 164.595,309.407 164.800,313.200 164.800 C 316.426 164.800,316.800 164.876,316.800 165.534 C 316.800 166.935,313.036 175.841,308.996 184.000 C 302.711 196.693,303.051 195.709,305.020 195.539 C 305.898 195.463,306.567 195.624,306.775 195.960 C 307.171 196.600,308.000 196.205,308.000 195.376 C 308.000 195.059,308.180 194.800,308.400 194.800 C 308.620 194.800,308.800 194.440,308.800 194.000 C 308.800 193.560,308.980 193.200,309.200 193.200 C 309.420 193.200,309.600 192.970,309.600 192.688 C 309.600 192.407,309.960 191.917,310.400 191.600 C 310.840 191.283,311.200 190.693,311.200 190.288 C 311.200 189.884,311.380 189.664,311.600 189.800 C 311.820 189.936,312.000 189.677,312.000 189.224 C 312.000 188.771,312.146 188.400,312.325 188.400 C 312.504 188.400,312.898 187.770,313.200 187.000 C 313.502 186.230,313.896 185.600,314.075 185.600 C 314.254 185.600,314.400 185.319,314.400 184.976 C 314.400 184.633,314.580 184.464,314.800 184.600 C 315.020 184.736,315.200 184.549,315.200 184.185 C 315.200 183.821,315.572 183.001,316.027 182.362 C 316.482 181.723,316.745 181.200,316.612 181.200 C 316.478 181.200,316.736 180.806,317.184 180.325 C 317.633 179.843,318.003 178.988,318.006 178.425 C 318.011 177.616,318.094 177.527,318.400 178.000 C 318.613 178.330,318.804 178.510,318.824 178.400 C 319.088 176.963,319.197 176.645,319.495 176.440 C 319.687 176.308,319.519 175.885,319.122 175.500 C 318.725 175.115,318.400 174.980,318.400 175.200 C 318.400 175.420,317.500 175.600,316.400 175.600 C 314.266 175.600,314.150 175.459,314.850 173.719 C 315.097 173.103,315.436 172.240,315.602 171.800 C 315.768 171.360,316.184 170.280,316.525 169.400 C 316.867 168.520,317.634 166.540,318.230 165.000 C 319.912 160.653,323.200 150.477,323.200 149.618 C 323.200 149.194,323.380 148.736,323.600 148.600 C 324.631 147.963,323.760 147.600,321.200 147.600 C 319.491 147.600,318.400 147.434,318.400 147.175 C 318.400 146.364,320.083 142.856,324.579 134.292 C 326.054 131.483,327.203 129.053,327.131 128.892 C 327.059 128.731,326.360 129.860,325.577 131.400 M135.600 130.400 C 136.398 130.916,138.519 130.916,138.200 130.400 C 138.064 130.180,137.288 130.003,136.476 130.006 C 135.376 130.011,135.153 130.111,135.600 130.400 M153.400 130.400 C 150.760 130.531,149.410 130.693,150.400 130.759 C 153.104 130.940,154.443 131.399,153.400 131.788 C 152.960 131.952,152.033 132.336,151.340 132.643 C 149.499 133.457,148.212 133.335,144.250 131.976 C 142.298 131.306,140.318 130.812,139.850 130.879 C 139.354 130.950,140.428 131.459,142.432 132.103 C 146.601 133.442,149.869 135.381,153.580 138.716 L 156.379 141.232 157.426 140.546 C 164.029 136.220,175.666 131.355,180.500 130.901 C 188.728 130.128,166.944 129.725,153.400 130.400 M189.424 131.387 C 190.442 132.158,191.024 132.167,190.257 131.400 C 189.927 131.070,189.430 130.800,189.152 130.800 C 188.869 130.800,188.988 131.058,189.424 131.387 M163.200 133.200 C 163.200 133.420,162.795 133.597,162.300 133.594 C 161.572 133.589,161.515 133.514,162.000 133.200 C 162.776 132.699,163.200 132.699,163.200 133.200 M201.789 138.723 C 203.323 140.305,204.649 141.600,204.736 141.600 C 205.034 141.600,202.196 138.596,200.600 137.223 C 199.720 136.466,200.255 137.141,201.789 138.723 M206.223 144.105 C 207.084 145.337,207.853 146.280,207.933 146.201 C 208.129 146.004,205.706 142.513,205.124 142.153 C 204.867 141.994,205.362 142.873,206.223 144.105 M149.315 147.752 C 144.035 152.187,133.414 163.683,131.318 167.231 C 130.938 167.874,130.486 168.400,130.314 168.400 C 130.141 168.400,130.000 168.670,130.000 169.000 C 130.000 169.330,129.820 169.600,129.600 169.600 C 129.380 169.600,129.200 169.855,129.200 170.167 C 129.200 170.478,128.975 170.824,128.700 170.935 C 128.425 171.046,130.064 171.151,132.343 171.168 C 136.127 171.197,136.460 171.261,136.193 171.900 C 135.749 172.960,135.153 175.595,134.923 177.512 C 134.810 178.454,134.353 179.634,133.908 180.133 C 130.059 184.455,127.484 191.557,129.850 191.329 C 130.256 191.290,130.740 191.470,130.925 191.729 C 131.180 192.086,131.310 192.079,131.465 191.698 C 131.577 191.421,131.798 191.275,131.957 191.374 C 132.116 191.472,132.287 190.870,132.336 190.036 C 132.385 189.202,132.780 187.824,133.213 186.975 C 133.646 186.126,134.000 184.918,134.000 184.292 C 134.000 183.533,134.154 183.248,134.462 183.438 C 134.750 183.616,134.815 183.548,134.635 183.257 C 134.476 183.000,134.589 182.297,134.886 181.695 C 135.183 181.093,135.473 179.790,135.531 178.800 C 135.627 177.139,137.172 171.265,138.003 169.400 C 138.199 168.960,138.622 167.790,138.942 166.800 C 139.493 165.097,140.485 162.368,141.196 160.600 C 141.373 160.160,142.121 158.507,142.859 156.928 L 144.200 154.055 149.301 153.928 C 152.106 153.857,154.401 153.933,154.401 154.096 C 154.400 154.258,154.850 154.354,155.400 154.308 C 156.969 154.178,156.502 151.423,153.975 145.900 C 153.292 144.408,153.302 144.404,149.315 147.752 M210.000 150.500 C 212.255 154.800,215.260 162.248,217.385 168.800 C 219.437 175.125,220.306 177.512,221.286 179.512 L 222.124 181.224 226.762 181.112 C 230.212 181.029,231.374 180.872,231.300 180.500 C 231.245 180.225,231.425 180.045,231.700 180.100 C 232.439 180.248,231.925 174.648,231.156 174.173 C 230.960 174.052,230.800 173.481,230.800 172.905 C 230.800 171.629,229.961 169.200,229.520 169.200 C 229.344 169.200,229.194 168.525,229.187 167.700 C 229.180 166.875,228.923 165.868,228.615 165.461 C 228.307 165.055,228.161 164.425,228.291 164.061 C 228.421 163.698,228.382 163.532,228.203 163.694 C 227.585 164.254,226.729 161.969,227.296 161.269 C 227.693 160.778,227.694 160.710,227.300 160.947 C 226.996 161.130,226.800 161.029,226.800 160.690 C 226.800 160.384,226.530 160.133,226.200 160.133 C 225.870 160.133,225.600 160.328,225.601 160.567 C 225.601 160.861,223.997 160.961,220.590 160.877 L 215.578 160.754 214.894 159.177 C 214.519 158.310,214.074 157.600,213.906 157.600 C 213.738 157.600,213.600 157.342,213.600 157.027 C 213.600 156.711,212.677 154.686,211.548 152.527 C 210.420 150.367,209.295 148.196,209.048 147.703 C 208.802 147.210,208.479 146.805,208.330 146.803 C 208.182 146.801,208.933 148.465,210.000 150.500 M263.276 155.940 C 262.768 156.083,262.359 156.334,262.367 156.498 C 262.409 157.395,261.848 159.200,261.526 159.200 C 261.321 159.200,261.251 159.360,261.372 159.555 C 261.493 159.750,261.323 160.132,260.996 160.404 C 260.668 160.676,260.400 161.409,260.400 162.034 C 260.400 162.659,260.050 164.057,259.623 165.142 C 259.196 166.226,258.951 167.218,259.080 167.347 C 259.209 167.475,259.097 167.843,258.831 168.163 C 258.565 168.483,258.333 169.291,258.314 169.958 C 258.295 170.626,258.126 171.078,257.940 170.963 C 257.753 170.847,257.600 171.303,257.600 171.976 C 257.600 172.649,257.420 173.200,257.200 173.200 C 256.980 173.200,256.800 173.524,256.800 173.920 C 256.800 174.316,256.575 174.882,256.300 175.179 C 255.900 175.610,255.900 175.661,256.300 175.435 C 256.996 175.042,256.925 176.401,256.200 177.359 C 255.884 177.776,255.718 178.268,255.831 178.451 C 255.944 178.634,255.842 179.147,255.604 179.592 C 255.091 180.551,254.559 180.478,261.500 180.403 C 264.415 180.371,266.799 180.493,266.797 180.673 C 266.790 181.383,264.295 190.761,263.410 193.400 C 262.483 196.165,262.352 197.596,263.231 195.355 C 264.060 193.241,271.370 168.854,273.588 160.800 C 273.860 159.810,274.245 158.587,274.442 158.081 C 275.393 155.642,275.300 155.596,269.500 155.640 C 266.585 155.662,263.784 155.797,263.276 155.940 M95.636 157.300 C 95.616 157.685,95.409 158.000,95.176 158.000 C 94.943 158.000,94.864 158.180,95.000 158.400 C 95.136 158.620,95.046 158.800,94.800 158.800 C 94.554 158.800,94.481 159.007,94.637 159.261 C 94.835 159.580,95.088 159.495,95.461 158.984 C 95.757 158.579,96.000 158.388,96.000 158.560 C 96.000 158.733,95.640 159.331,95.200 159.891 C 94.760 160.450,94.400 160.759,94.400 160.577 C 94.400 160.396,94.136 160.596,93.813 161.024 C 93.490 161.451,93.220 161.643,93.213 161.451 C 93.206 161.259,92.932 161.324,92.604 161.596 C 92.277 161.868,92.108 162.252,92.230 162.448 C 92.351 162.645,92.169 162.914,91.825 163.046 C 91.481 163.178,91.200 163.614,91.200 164.016 C 91.200 164.417,90.840 164.860,90.400 165.000 C 89.684 165.227,89.538 165.459,89.626 166.230 C 89.641 166.357,89.281 166.783,88.826 167.177 C 88.372 167.571,88.000 168.017,88.000 168.168 C 88.000 168.789,86.106 171.173,85.831 170.898 C 85.667 170.734,85.572 170.780,85.619 171.000 C 85.741 171.573,84.684 174.000,84.312 174.000 C 84.141 174.000,84.000 174.281,84.000 174.624 C 84.000 174.967,83.858 175.160,83.685 175.052 C 83.512 174.945,83.121 175.430,82.817 176.129 C 82.513 176.828,82.145 177.490,81.999 177.600 C 81.853 177.710,81.146 178.970,80.429 180.400 C 79.711 181.830,78.843 183.315,78.500 183.700 C 78.157 184.085,77.997 184.400,78.145 184.400 C 78.420 184.400,76.495 188.439,76.048 188.800 C 75.511 189.233,74.741 190.884,75.210 190.594 C 75.567 190.373,75.571 190.508,75.226 191.152 C 74.976 191.618,74.619 192.000,74.431 192.000 C 74.244 192.000,74.012 192.540,73.915 193.200 C 73.791 194.041,73.904 194.400,74.293 194.400 C 74.605 194.400,74.736 194.619,74.594 194.900 C 74.455 195.175,74.624 195.051,74.970 194.624 C 75.537 193.925,79.339 193.612,79.946 194.214 C 80.026 194.294,79.511 196.213,78.802 198.479 C 78.092 200.746,77.428 203.050,77.326 203.600 C 77.223 204.150,76.994 204.960,76.815 205.400 C 76.637 205.840,76.270 207.010,75.999 208.000 C 75.729 208.990,75.369 210.250,75.200 210.800 C 74.096 214.392,73.894 215.227,74.080 215.413 C 74.194 215.528,74.604 214.492,74.990 213.111 C 77.101 205.559,81.745 192.324,84.049 187.292 C 84.682 185.911,85.200 184.685,85.200 184.569 C 85.200 184.083,91.996 170.778,93.530 168.259 C 94.449 166.752,95.200 165.450,95.200 165.367 C 95.200 165.284,95.815 164.255,96.566 163.081 C 98.310 160.354,98.487 159.441,97.304 159.273 C 96.692 159.186,96.292 158.743,96.040 157.873 C 95.838 157.173,95.656 156.915,95.636 157.300 M161.953 169.900 C 161.927 170.065,161.927 170.335,161.953 170.500 C 162.033 171.006,160.882 170.832,160.629 170.300 C 160.499 170.025,160.487 170.421,160.602 171.180 C 160.718 171.939,160.962 172.659,161.145 172.780 C 161.329 172.901,161.447 173.397,161.408 173.881 C 161.368 174.366,161.486 174.671,161.668 174.558 C 161.851 174.445,162.030 174.993,162.067 175.776 C 162.103 176.559,162.148 177.515,162.167 177.900 C 162.185 178.285,162.346 178.708,162.525 178.839 C 162.704 178.971,162.866 179.639,162.886 180.325 C 162.905 181.011,163.074 181.478,163.260 181.363 C 163.447 181.247,163.603 181.838,163.606 182.676 C 163.612 184.155,164.370 186.904,164.926 187.459 C 165.077 187.610,165.202 188.198,165.204 188.767 C 165.207 189.335,165.469 190.659,165.788 191.710 C 166.107 192.760,166.254 193.914,166.116 194.275 C 165.947 194.714,166.019 194.836,166.332 194.642 C 166.648 194.447,166.800 194.725,166.800 195.496 C 166.800 196.125,167.025 196.882,167.300 197.179 C 167.706 197.616,167.688 197.658,167.200 197.400 C 166.712 197.142,166.694 197.184,167.100 197.621 C 167.375 197.918,167.600 198.538,167.600 199.000 C 167.600 199.462,167.825 200.082,168.100 200.379 C 168.502 200.812,168.496 200.859,168.070 200.617 C 167.420 200.248,168.162 201.685,169.330 203.058 C 169.811 203.623,169.914 204.006,169.630 204.181 C 169.000 204.571,169.105 205.200,169.800 205.200 C 170.130 205.200,170.400 205.065,170.399 204.900 C 170.399 204.735,172.586 204.661,175.259 204.735 L 180.120 204.870 179.875 202.806 C 179.741 201.671,179.447 200.170,179.222 199.471 C 178.998 198.772,178.254 196.310,177.569 194.000 C 173.934 181.735,170.814 172.884,169.285 170.500 C 168.705 169.596,162.086 169.054,161.953 169.900 M232.236 180.341 C 232.120 180.529,232.254 180.994,232.533 181.376 C 232.990 182.002,233.040 181.968,233.040 181.035 C 233.040 180.014,232.648 179.676,232.236 180.341 M131.149 192.500 C 130.967 192.857,130.951 194.383,131.131 194.202 C 131.427 193.906,131.650 192.400,131.397 192.400 C 131.289 192.400,131.177 192.445,131.149 192.500 M72.900 195.088 C 72.293 195.305,72.229 196.400,72.824 196.400 C 73.057 196.400,73.145 196.235,73.021 196.034 C 72.897 195.833,73.021 195.588,73.298 195.489 C 73.574 195.390,73.710 195.220,73.600 195.110 C 73.490 195.000,73.175 194.990,72.900 195.088 M260.692 198.657 C 256.971 204.005,249.072 213.381,244.285 218.130 C 243.216 219.192,242.678 219.879,243.091 219.658 C 245.544 218.346,263.570 196.800,262.215 196.800 C 262.088 196.800,261.402 197.636,260.692 198.657 M70.848 222.300 C 69.771 224.445,67.968 227.894,66.842 229.964 C 65.717 232.035,64.873 233.806,64.968 233.901 C 65.063 233.997,65.447 233.483,65.821 232.760 C 66.195 232.037,66.847 230.829,67.270 230.075 C 69.461 226.175,73.266 218.400,72.984 218.400 C 72.887 218.400,71.926 220.155,70.848 222.300 M63.048 237.048 C 61.184 240.557,61.414 240.787,63.333 237.333 C 64.145 235.872,64.736 234.603,64.646 234.512 C 64.555 234.422,63.836 235.563,63.048 237.048 M60.180 242.440 C 59.611 243.562,59.213 244.547,59.295 244.629 C 59.377 244.711,59.927 243.793,60.518 242.589 C 61.108 241.385,61.506 240.400,61.402 240.400 C 61.298 240.400,60.748 241.318,60.180 242.440 " stroke="none" fill="#69c1db" fill-rule="evenodd"/><path id="path3" d="M128.962 131.333 C 129.093 131.736,129.200 132.141,129.200 132.233 C 129.200 132.325,129.605 132.395,130.100 132.388 C 130.975 132.376,130.978 132.363,130.200 131.922 C 129.760 131.673,129.248 131.273,129.062 131.034 C 128.861 130.775,128.820 130.896,128.962 131.333 M130.380 131.371 C 131.372 131.920,132.400 131.811,132.400 131.157 C 132.400 130.961,131.725 130.806,130.900 130.814 C 129.420 130.828,129.413 130.836,130.380 131.371 M139.000 131.412 C 139.880 131.729,140.780 131.976,141.000 131.961 C 141.710 131.915,139.028 130.836,138.200 130.836 C 137.760 130.835,138.120 131.095,139.000 131.412 M177.600 131.425 C 176.384 131.885,176.331 131.955,177.200 131.959 C 177.750 131.962,178.740 131.717,179.400 131.414 C 181.005 130.680,179.547 130.688,177.600 131.425 M285.015 131.176 C 284.887 131.382,285.147 131.524,285.591 131.491 C 286.036 131.457,286.400 131.288,286.400 131.115 C 286.400 130.673,285.296 130.721,285.015 131.176 M324.600 132.800 C 324.259 133.460,324.069 134.000,324.179 134.000 C 324.289 134.000,324.659 133.460,325.000 132.800 C 325.341 132.140,325.531 131.600,325.421 131.600 C 325.311 131.600,324.941 132.140,324.600 132.800 M126.342 132.322 C 125.534 132.389,124.571 132.790,124.180 133.222 C 123.793 133.650,122.983 134.000,122.380 134.000 C 121.747 134.000,120.895 134.405,120.363 134.957 C 119.856 135.483,119.207 135.824,118.921 135.714 C 118.634 135.604,118.400 135.714,118.400 135.957 C 118.400 136.201,118.175 136.400,117.900 136.401 C 117.625 136.401,116.770 136.941,116.000 137.600 C 115.230 138.259,114.439 138.799,114.243 138.799 C 114.047 138.800,113.371 139.340,112.740 140.000 C 112.109 140.660,111.520 141.200,111.431 141.200 C 111.342 141.200,110.620 141.830,109.827 142.600 C 109.034 143.370,108.209 144.000,107.993 144.000 C 107.777 144.000,107.600 144.281,107.600 144.624 C 107.600 144.967,107.420 145.136,107.200 145.000 C 106.980 144.864,106.800 145.063,106.800 145.443 C 106.800 145.823,106.685 146.018,106.545 145.878 C 106.404 145.737,105.639 146.372,104.845 147.288 C 104.050 148.204,103.057 149.234,102.639 149.576 C 102.220 149.919,101.410 150.713,100.839 151.340 C 100.267 151.968,99.485 152.823,99.100 153.240 C 98.715 153.658,98.400 154.107,98.400 154.237 C 98.400 154.692,96.904 156.371,96.690 156.156 C 96.325 155.792,95.930 157.551,96.192 158.375 C 96.327 158.801,96.834 159.206,97.319 159.275 C 98.486 159.441,98.303 160.365,96.566 163.081 C 95.815 164.255,95.200 165.284,95.200 165.367 C 95.200 165.450,94.449 166.752,93.530 168.259 C 91.999 170.773,85.200 184.083,85.200 184.567 C 85.200 184.682,84.764 185.730,84.231 186.895 C 82.031 191.705,77.443 204.376,77.779 204.713 C 77.890 204.824,78.092 204.574,78.228 204.157 C 78.840 202.280,79.305 200.939,79.600 200.200 C 79.776 199.760,80.136 198.770,80.400 198.000 C 81.006 196.235,81.315 195.463,82.360 193.104 C 82.822 192.062,83.200 191.006,83.200 190.758 C 83.200 189.639,92.741 170.980,94.100 169.442 C 94.485 169.006,94.800 168.447,94.800 168.200 C 94.800 167.953,95.156 167.369,95.591 166.902 C 96.026 166.435,97.197 164.793,98.194 163.252 C 100.511 159.671,101.002 159.200,102.429 159.200 C 103.285 159.200,103.600 159.009,103.600 158.488 C 103.600 158.097,103.960 157.517,104.400 157.200 C 104.840 156.883,105.200 156.473,105.200 156.290 C 105.200 155.844,108.455 151.036,108.872 150.867 C 109.053 150.793,109.200 150.570,109.200 150.370 C 109.200 149.977,109.684 149.372,113.474 145.033 C 116.258 141.845,117.792 140.367,120.386 138.373 C 121.368 137.618,122.527 136.685,122.962 136.300 C 123.396 135.915,123.987 135.600,124.275 135.600 C 124.564 135.600,124.800 135.455,124.800 135.279 C 124.800 135.102,125.697 134.517,126.794 133.979 C 127.890 133.440,128.790 132.854,128.794 132.676 C 128.797 132.498,128.635 132.455,128.434 132.579 C 128.233 132.703,128.008 132.669,127.934 132.502 C 127.860 132.336,127.144 132.255,126.342 132.322 M146.665 134.147 C 149.583 135.720,154.031 139.178,154.960 140.595 C 155.785 141.854,156.299 141.855,158.000 140.600 C 158.745 140.050,159.213 139.600,159.039 139.600 C 158.866 139.600,158.197 139.975,157.554 140.433 L 156.384 141.266 154.092 139.167 C 151.196 136.515,149.107 134.984,146.713 133.763 C 143.876 132.315,143.838 132.623,146.665 134.147 M171.400 133.414 C 170.400 133.896,170.366 133.951,171.200 133.748 C 172.333 133.471,173.607 132.821,173.000 132.830 C 172.780 132.833,172.060 133.096,171.400 133.414 M276.562 136.245 C 276.741 136.713,276.638 136.823,276.184 136.649 C 275.824 136.511,275.662 136.577,275.803 136.805 C 275.937 137.022,275.846 137.200,275.600 137.200 C 275.354 137.200,275.264 137.380,275.400 137.600 C 275.653 138.009,275.151 138.149,273.891 138.019 C 273.501 137.979,273.231 138.169,273.291 138.441 C 273.351 138.712,272.950 139.172,272.400 139.461 C 271.850 139.751,271.640 139.991,271.933 139.994 C 272.226 139.997,271.731 140.706,270.833 141.569 C 269.935 142.431,269.200 143.451,269.200 143.835 C 269.200 144.219,269.089 144.422,268.952 144.286 C 268.622 143.955,267.902 144.748,267.304 146.100 C 267.036 146.705,266.623 147.200,266.385 147.200 C 266.147 147.200,266.064 147.380,266.199 147.599 C 266.478 148.049,265.211 150.400,264.690 150.400 C 264.505 150.400,264.471 150.591,264.616 150.825 C 264.760 151.059,264.569 151.592,264.191 152.010 C 263.812 152.428,263.613 153.056,263.747 153.406 C 263.888 153.774,263.824 153.939,263.595 153.797 C 263.378 153.663,263.186 153.788,263.169 154.076 C 263.153 154.364,263.085 154.870,263.019 155.200 C 262.916 155.717,263.726 155.781,268.850 155.663 C 275.395 155.513,275.422 155.525,274.451 158.081 C 274.117 158.962,273.845 159.873,272.863 163.400 C 272.618 164.280,271.770 167.222,270.980 169.938 C 270.189 172.654,269.630 174.963,269.737 175.070 C 269.843 175.177,270.419 173.675,271.016 171.732 C 271.613 169.789,272.414 167.210,272.797 166.000 C 273.180 164.790,273.722 162.990,274.002 162.000 C 276.920 151.675,280.921 144.064,286.373 138.468 L 288.060 136.737 282.630 136.868 C 277.674 136.988,277.199 136.939,277.199 136.300 C 277.200 135.915,277.001 135.600,276.757 135.600 C 276.514 135.600,276.426 135.890,276.562 136.245 M204.175 141.732 C 204.791 142.539,205.376 143.200,205.475 143.200 C 205.753 143.200,204.021 140.860,203.509 140.544 C 203.259 140.389,203.559 140.924,204.175 141.732 M150.000 146.648 C 146.511 149.634,139.747 156.310,138.700 157.800 C 138.237 158.460,140.095 156.723,142.829 153.940 C 147.554 149.132,152.455 144.800,153.172 144.800 C 153.354 144.800,153.729 145.346,154.005 146.013 C 154.282 146.680,154.587 147.147,154.683 147.050 C 155.000 146.733,153.591 144.400,153.090 144.411 C 152.820 144.417,151.430 145.424,150.000 146.648 M314.111 153.049 C 306.671 168.120,303.600 175.111,303.600 176.975 C 303.600 177.099,304.669 177.200,305.976 177.200 C 307.283 177.200,308.464 177.380,308.600 177.600 C 308.736 177.820,309.186 178.000,309.600 178.000 C 310.014 178.000,310.440 178.141,310.547 178.314 C 311.000 179.048,304.844 191.057,299.062 200.718 C 293.740 209.609,293.567 209.932,293.970 210.181 C 294.632 210.591,296.812 210.705,297.036 210.342 C 297.157 210.147,297.423 210.091,297.628 210.217 C 297.832 210.344,298.000 210.137,298.000 209.757 C 298.000 209.377,298.119 209.186,298.264 209.331 C 298.529 209.596,299.487 208.488,299.526 207.870 C 299.538 207.688,299.919 207.217,300.374 206.823 C 300.828 206.429,301.200 205.930,301.200 205.715 C 301.200 205.500,301.560 204.998,302.000 204.600 C 302.440 204.202,302.800 203.649,302.800 203.371 C 302.800 203.094,302.943 202.807,303.117 202.733 C 303.573 202.542,305.414 199.459,305.294 199.089 C 305.238 198.918,305.464 198.673,305.796 198.546 C 306.128 198.419,306.400 197.974,306.400 197.557 C 306.400 197.141,306.586 196.800,306.814 196.800 C 307.089 196.800,307.099 196.558,306.841 196.077 C 306.549 195.530,306.107 195.395,305.027 195.521 C 303.034 195.754,302.708 196.699,308.996 184.000 C 313.036 175.841,316.800 166.935,316.800 165.534 C 316.800 164.876,316.426 164.800,313.200 164.800 C 309.407 164.800,309.060 164.595,309.973 162.895 C 310.178 162.513,311.031 160.670,311.869 158.800 C 312.707 156.930,314.594 152.970,316.063 150.000 C 317.532 147.030,318.665 144.532,318.582 144.449 C 318.499 144.366,316.487 148.236,314.111 153.049 M155.051 148.374 C 155.427 149.839,156.371 151.886,156.355 151.200 C 156.347 150.870,155.994 149.880,155.571 149.000 C 155.148 148.120,154.914 147.838,155.051 148.374 M156.412 153.020 C 156.423 154.054,156.477 154.109,156.854 153.461 C 157.161 152.932,157.158 152.598,156.841 152.281 C 156.520 151.960,156.403 152.159,156.412 153.020 M210.951 152.800 C 211.271 153.992,212.528 157.009,212.860 157.380 C 213.516 158.113,213.163 157.006,211.976 154.600 C 211.324 153.280,210.863 152.470,210.951 152.800 M157.502 157.800 C 157.607 158.350,157.852 158.800,158.047 158.800 C 158.241 158.800,158.400 159.599,158.400 160.576 C 158.400 161.553,158.580 162.464,158.800 162.600 C 159.020 162.736,159.200 163.467,159.200 164.224 C 159.200 164.981,159.363 165.600,159.563 165.600 C 159.762 165.600,159.831 165.960,159.716 166.400 C 159.601 166.840,159.678 167.200,159.887 167.200 C 160.096 167.200,160.295 167.425,160.330 167.700 C 160.364 167.975,160.469 168.650,160.563 169.200 C 160.657 169.750,160.748 170.335,160.767 170.500 C 160.785 170.665,161.070 170.800,161.400 170.800 C 161.730 170.800,161.955 170.575,161.900 170.300 C 161.689 169.244,168.590 169.417,169.276 170.485 C 170.814 172.883,173.925 181.704,177.569 194.000 C 178.254 196.310,178.998 198.772,179.222 199.471 C 179.447 200.170,179.741 201.671,179.875 202.806 L 180.120 204.870 175.259 204.735 C 172.586 204.661,170.399 204.735,170.399 204.900 C 170.400 205.065,170.133 205.200,169.806 205.200 C 169.321 205.200,169.358 205.439,170.004 206.500 C 170.440 207.215,170.798 208.385,170.799 209.100 C 170.799 209.815,170.935 210.401,171.100 210.403 C 171.506 210.407,172.400 212.386,172.400 213.280 C 172.400 213.676,172.591 214.000,172.824 214.000 C 173.057 214.000,173.156 214.148,173.044 214.329 C 172.932 214.509,173.102 215.160,173.420 215.774 C 173.739 216.389,174.000 217.154,174.000 217.474 C 174.000 217.795,174.272 218.329,174.604 218.661 C 174.936 218.993,175.105 219.430,174.980 219.632 C 174.855 219.835,174.954 220.000,175.200 220.000 C 175.446 220.000,175.563 220.135,175.461 220.300 C 175.359 220.465,177.929 220.542,181.172 220.472 L 187.069 220.344 189.567 223.672 C 190.940 225.502,192.455 227.526,192.932 228.168 C 197.219 233.940,200.440 236.000,205.176 236.000 L 209.092 236.000 206.219 233.032 C 201.703 228.368,194.566 216.437,191.543 208.500 C 190.926 206.880,190.492 205.827,189.688 204.000 C 189.252 203.010,187.982 199.770,186.866 196.800 C 185.749 193.830,183.731 188.520,182.380 185.000 C 181.030 181.480,179.825 178.240,179.702 177.800 C 179.579 177.360,179.175 176.550,178.804 176.000 C 178.434 175.450,178.017 174.685,177.878 174.300 C 177.674 173.735,177.139 173.599,175.113 173.594 C 171.655 173.585,171.967 173.948,168.413 165.800 C 166.975 162.501,164.763 158.246,164.099 157.500 C 163.348 156.656,158.800 156.467,158.800 157.280 C 158.800 157.653,158.693 157.653,158.320 157.280 C 157.572 156.532,157.294 156.709,157.502 157.800 M213.200 158.121 C 213.200 158.261,213.650 159.754,214.200 161.439 C 214.750 163.124,215.200 164.659,215.200 164.851 C 215.200 165.043,213.019 165.200,210.353 165.200 C 205.518 165.200,205.507 165.202,205.763 166.100 C 205.904 166.595,206.120 167.540,206.242 168.200 C 206.365 168.860,206.610 169.760,206.787 170.200 C 206.964 170.640,207.330 171.810,207.600 172.800 C 207.870 173.790,208.233 174.960,208.405 175.400 C 208.876 176.599,209.384 178.169,210.800 182.800 C 212.770 189.246,215.194 196.414,216.039 198.296 C 216.457 199.228,216.800 200.156,216.800 200.358 C 216.800 200.559,217.193 201.461,217.674 202.362 L 218.548 204.000 222.501 204.000 C 226.290 204.000,226.443 203.966,226.196 203.189 C 226.055 202.742,225.883 201.887,225.815 201.289 C 225.746 200.690,225.567 199.165,225.416 197.900 L 225.142 195.600 229.971 195.600 C 232.924 195.600,234.800 195.445,234.800 195.200 C 234.800 193.837,236.093 195.534,236.933 198.000 C 237.072 198.409,237.147 198.339,237.168 197.780 C 237.186 197.329,237.031 196.789,236.825 196.580 C 236.618 196.371,236.387 195.725,236.310 195.144 C 236.234 194.564,235.908 193.765,235.586 193.369 C 235.055 192.718,235.071 192.677,235.757 192.934 C 236.349 193.157,236.419 193.105,236.080 192.697 C 235.842 192.410,235.556 191.731,235.444 191.188 C 235.332 190.644,235.125 189.750,234.983 189.200 C 234.841 188.650,234.734 187.846,234.744 187.412 C 234.755 186.979,234.594 186.520,234.388 186.392 C 234.181 186.265,233.964 185.512,233.906 184.719 C 233.848 183.926,233.665 183.361,233.500 183.463 C 233.233 183.627,233.013 182.331,233.163 181.470 C 233.194 181.289,233.035 181.255,232.810 181.394 C 232.456 181.612,232.245 181.159,232.330 180.367 C 232.344 180.238,232.106 180.133,231.800 180.133 C 231.494 180.133,231.279 180.328,231.322 180.567 C 231.373 180.852,229.818 181.038,226.762 181.112 L 222.124 181.224 221.286 179.512 C 220.307 177.513,219.439 175.130,217.385 168.800 C 215.411 162.718,213.200 157.075,213.200 158.121 M95.452 159.008 C 95.317 159.362,95.051 159.555,94.861 159.438 C 94.671 159.321,94.117 159.650,93.628 160.170 C 93.100 160.732,92.904 161.217,93.145 161.366 C 93.368 161.504,93.736 161.298,93.963 160.908 C 94.190 160.519,94.381 160.359,94.388 160.554 C 94.395 160.749,94.781 160.424,95.246 159.833 C 95.711 159.242,96.003 158.670,95.895 158.562 C 95.787 158.454,95.588 158.655,95.452 159.008 M133.490 163.700 C 126.945 171.541,120.801 180.159,117.235 186.500 L 115.941 188.800 121.378 188.800 L 126.815 188.800 126.546 189.900 C 126.398 190.505,126.170 191.090,126.038 191.200 C 125.472 191.675,118.800 204.837,118.800 205.479 C 118.800 205.776,119.212 206.177,119.716 206.368 C 120.220 206.560,120.873 207.005,121.165 207.358 C 121.458 207.711,121.874 208.000,122.089 208.000 C 122.879 208.000,125.171 209.292,125.087 209.689 C 125.039 209.915,125.225 210.183,125.500 210.283 C 125.788 210.389,126.000 210.147,126.000 209.713 C 126.000 209.299,126.216 208.744,126.480 208.480 C 126.853 208.107,126.836 208.000,126.400 208.000 C 125.964 208.000,125.947 207.893,126.320 207.520 C 126.584 207.256,126.800 206.716,126.800 206.320 C 126.800 205.924,126.980 205.600,127.200 205.600 C 127.420 205.600,127.600 205.251,127.600 204.824 C 127.600 204.397,127.780 203.936,128.000 203.800 C 128.220 203.664,128.400 203.023,128.400 202.376 C 128.400 201.729,128.541 201.200,128.713 201.200 C 128.885 201.200,129.066 200.715,129.115 200.122 C 129.164 199.530,129.347 198.945,129.521 198.822 C 129.696 198.700,129.867 198.153,129.901 197.607 C 129.960 196.687,130.312 195.727,131.276 193.858 C 131.541 193.346,131.526 193.198,131.230 193.382 C 130.993 193.528,130.800 193.467,130.800 193.247 C 130.800 193.027,130.981 192.735,131.203 192.598 C 131.778 192.243,130.692 191.252,129.818 191.334 C 127.484 191.552,130.088 184.422,133.908 180.133 C 134.353 179.634,134.810 178.454,134.923 177.512 C 135.153 175.595,135.749 172.960,136.193 171.900 C 136.460 171.261,136.127 171.197,132.343 171.168 C 130.064 171.151,128.425 171.046,128.700 170.935 C 128.975 170.824,129.200 170.478,129.200 170.167 C 129.200 169.855,129.380 169.600,129.600 169.600 C 129.820 169.600,130.000 169.330,130.000 169.000 C 130.000 168.670,130.141 168.400,130.314 168.400 C 130.486 168.400,130.950 167.854,131.344 167.187 C 131.944 166.172,133.700 163.960,137.132 159.900 C 137.458 159.515,137.617 159.200,137.485 159.200 C 137.354 159.200,135.556 161.225,133.490 163.700 M268.112 179.627 C 267.430 181.922,266.226 185.913,265.436 188.495 C 264.032 193.088,263.643 194.800,264.459 192.800 C 265.453 190.364,269.647 176.340,269.507 175.921 C 269.421 175.664,268.794 177.332,268.112 179.627 M259.425 201.100 C 258.176 202.805,257.719 203.570,258.409 202.800 C 259.789 201.262,262.139 198.000,261.868 198.000 C 261.774 198.000,260.675 199.395,259.425 201.100 M76.787 207.010 C 75.894 210.225,75.893 210.231,76.292 209.800 C 76.847 209.199,77.723 206.169,77.519 205.557 C 77.421 205.262,77.091 205.916,76.787 207.010 M75.429 211.429 C 75.281 212.015,75.251 212.584,75.361 212.694 C 75.471 212.804,75.681 212.415,75.829 211.829 C 75.976 211.242,76.006 210.673,75.896 210.563 C 75.786 210.453,75.576 210.842,75.429 211.429 M249.781 212.900 L 248.200 214.600 249.900 213.019 C 251.481 211.548,251.784 211.200,251.481 211.200 C 251.416 211.200,250.651 211.965,249.781 212.900 M295.324 213.373 C 294.679 214.108,295.153 214.504,295.848 213.810 C 296.151 213.506,296.400 213.154,296.400 213.029 C 296.400 212.626,295.815 212.813,295.324 213.373 M245.282 217.538 C 243.258 219.669,242.690 220.072,242.388 219.594 C 242.161 219.236,242.010 219.189,242.006 219.476 C 241.990 220.757,243.082 220.216,245.714 217.639 C 247.301 216.085,248.420 214.830,248.200 214.850 C 247.980 214.871,246.667 216.080,245.282 217.538 M69.955 224.900 C 68.415 227.974,67.770 229.183,64.732 234.700 C 64.096 235.855,63.716 236.796,63.888 236.790 C 64.060 236.785,64.580 236.020,65.044 235.090 C 65.508 234.161,67.276 230.745,68.974 227.500 C 70.671 224.255,71.958 221.600,71.834 221.600 C 71.710 221.600,70.865 223.085,69.955 224.900 M61.820 240.111 C 60.976 241.700,60.476 242.820,60.709 242.600 C 61.309 242.036,63.708 237.574,63.515 237.382 C 63.428 237.294,62.665 238.523,61.820 240.111 " stroke="none" fill="#32a2c9" fill-rule="evenodd"/><path id="path4" d="M293.785 128.912 C 293.438 129.107,292.579 129.325,291.877 129.398 C 291.174 129.471,290.510 129.568,290.400 129.613 C 290.290 129.658,290.065 129.673,289.900 129.647 C 289.735 129.621,289.600 129.763,289.600 129.963 C 289.600 130.162,289.240 130.231,288.800 130.116 C 288.259 129.974,288.000 130.104,288.000 130.516 C 288.000 130.928,287.741 131.057,287.200 130.916 C 286.707 130.787,286.400 130.904,286.400 131.220 C 286.400 131.502,286.290 131.624,286.156 131.490 C 286.022 131.356,285.052 131.585,284.000 132.000 C 282.948 132.415,281.968 132.635,281.822 132.489 C 281.677 132.344,281.677 132.536,281.823 132.917 C 282.032 133.459,281.935 133.550,281.379 133.337 C 280.851 133.134,280.754 133.202,281.000 133.600 C 281.242 133.992,281.152 134.067,280.666 133.881 C 280.300 133.740,280.000 133.780,280.000 133.970 C 280.000 134.159,279.721 134.422,279.379 134.553 C 278.961 134.713,278.852 134.629,279.044 134.295 C 279.201 134.023,278.850 134.236,278.265 134.770 C 276.086 136.754,276.627 137.014,282.630 136.868 L 288.060 136.737 286.373 138.468 C 280.921 144.064,276.920 151.675,274.002 162.000 C 273.722 162.990,273.183 164.790,272.805 166.000 C 271.412 170.453,269.589 176.384,267.393 183.600 C 263.312 197.013,262.521 198.433,252.806 209.775 C 246.688 216.919,243.014 220.580,242.366 220.179 C 242.165 220.055,242.000 220.133,242.000 220.353 C 242.000 220.573,242.157 220.850,242.348 220.968 C 242.539 221.086,243.110 222.312,243.615 223.692 C 244.120 225.071,245.154 227.451,245.913 228.981 L 247.292 231.762 248.146 230.590 C 251.084 226.559,256.376 215.538,258.416 209.200 C 261.526 199.537,263.321 195.960,268.722 188.670 C 270.868 185.771,272.875 182.905,273.180 182.300 C 273.485 181.695,273.885 181.200,274.068 181.200 C 274.250 181.200,274.400 180.930,274.400 180.600 C 274.400 180.270,274.580 180.000,274.800 180.000 C 275.020 180.000,275.200 179.764,275.200 179.475 C 275.200 179.187,275.560 178.564,276.000 178.092 C 276.440 177.620,276.800 176.996,276.800 176.705 C 276.800 176.414,277.160 175.917,277.600 175.600 C 278.040 175.283,278.400 174.703,278.400 174.312 C 278.400 173.920,278.580 173.600,278.800 173.600 C 279.020 173.600,279.200 173.349,279.200 173.043 C 279.200 172.736,279.485 172.376,279.833 172.243 C 280.597 171.949,303.600 171.913,303.600 172.205 C 303.600 172.318,303.432 172.723,303.226 173.105 C 303.021 173.487,302.617 174.385,302.329 175.100 C 302.040 175.815,301.669 176.400,301.502 176.400 C 301.336 176.400,301.200 176.653,301.200 176.962 C 301.200 177.271,300.857 178.216,300.438 179.062 C 299.178 181.605,297.537 185.309,296.990 186.842 C 296.707 187.636,295.998 189.346,295.414 190.642 C 294.829 191.939,293.870 194.080,293.282 195.400 C 287.569 208.231,278.353 224.571,274.481 228.737 C 273.609 229.675,274.285 229.738,275.274 228.811 C 279.472 224.872,281.748 223.613,284.896 223.488 C 287.833 223.372,290.356 221.922,290.394 220.329 C 290.397 220.179,291.210 219.212,292.200 218.178 C 293.190 217.145,294.000 216.067,294.000 215.783 C 294.000 215.499,294.166 215.207,294.370 215.133 C 294.573 215.060,294.798 214.730,294.870 214.400 C 294.941 214.070,295.315 213.509,295.700 213.153 C 296.085 212.797,296.400 212.272,296.400 211.986 C 296.400 211.701,296.511 211.578,296.648 211.714 C 296.784 211.850,297.155 211.702,297.473 211.384 C 298.135 210.722,297.778 209.777,297.064 210.304 C 296.559 210.677,295.249 210.658,294.220 210.263 C 293.470 209.975,293.186 210.535,299.062 200.718 C 304.844 191.057,311.000 179.048,310.547 178.314 C 310.440 178.141,310.014 178.000,309.600 178.000 C 309.186 178.000,308.736 177.820,308.600 177.600 C 308.464 177.380,307.283 177.200,305.976 177.200 C 304.669 177.200,303.600 177.099,303.600 176.975 C 303.600 174.249,315.277 149.780,325.122 131.875 C 327.247 128.010,328.568 128.318,310.409 128.446 C 301.614 128.508,294.133 128.718,293.785 128.912 M134.242 130.468 C 134.436 130.783,134.313 130.852,133.866 130.681 C 133.486 130.535,133.200 130.620,133.200 130.879 C 133.200 131.129,133.089 131.222,132.952 131.086 C 132.816 130.950,132.445 131.098,132.127 131.416 C 131.623 131.920,131.398 131.916,130.374 131.387 C 129.637 131.005,129.200 130.941,129.200 131.213 C 129.200 131.452,129.065 131.564,128.900 131.462 C 128.735 131.361,128.060 131.532,127.400 131.843 C 126.524 132.256,126.443 132.364,127.100 132.242 C 127.595 132.150,128.000 132.249,128.000 132.461 C 128.000 132.673,128.180 132.736,128.400 132.600 C 128.620 132.464,128.797 132.498,128.794 132.676 C 128.790 132.854,127.890 133.440,126.794 133.979 C 125.697 134.517,124.800 135.102,124.800 135.279 C 124.800 135.455,124.564 135.600,124.275 135.600 C 123.987 135.600,123.396 135.915,122.962 136.300 C 122.527 136.685,121.368 137.618,120.386 138.373 C 117.792 140.367,116.258 141.845,113.474 145.033 C 109.684 149.372,109.200 149.977,109.200 150.370 C 109.200 150.570,109.053 150.793,108.872 150.867 C 108.455 151.036,105.200 155.844,105.200 156.290 C 105.200 156.473,104.840 156.883,104.400 157.200 C 103.960 157.517,103.600 158.097,103.600 158.488 C 103.600 159.009,103.285 159.200,102.429 159.200 C 101.002 159.200,100.511 159.671,98.194 163.252 C 97.197 164.793,96.026 166.435,95.591 166.902 C 95.156 167.369,94.800 167.953,94.800 168.200 C 94.800 168.447,94.485 169.006,94.100 169.442 C 92.741 170.980,83.200 189.639,83.200 190.758 C 83.200 191.006,82.822 192.062,82.360 193.104 C 81.099 195.951,80.898 196.459,80.343 198.200 C 80.063 199.080,79.723 199.980,79.589 200.200 C 79.454 200.420,79.100 201.410,78.802 202.400 C 78.505 203.390,78.112 204.371,77.930 204.580 C 77.749 204.789,77.600 205.366,77.600 205.861 C 77.600 206.357,77.398 207.266,77.150 207.881 C 76.492 209.519,76.171 210.412,75.599 212.200 C 75.317 213.080,74.999 214.070,74.893 214.400 C 74.786 214.730,76.177 212.120,77.985 208.600 C 91.366 182.550,95.556 174.553,100.256 166.100 C 118.559 133.183,136.529 124.184,153.261 139.555 C 156.379 142.419,157.003 142.729,154.657 140.249 C 151.215 136.611,146.573 133.644,142.400 132.415 C 141.410 132.123,139.829 131.641,138.886 131.342 C 137.943 131.044,136.638 130.800,135.986 130.800 C 135.334 130.800,134.800 130.620,134.800 130.400 C 134.800 130.180,134.609 130.000,134.376 130.000 C 134.143 130.000,134.083 130.211,134.242 130.468 M183.000 130.400 C 182.860 130.626,183.188 130.800,183.753 130.800 C 184.303 130.800,184.864 130.620,185.000 130.400 C 185.140 130.174,184.812 130.000,184.247 130.000 C 183.697 130.000,183.136 130.180,183.000 130.400 M179.400 131.414 C 177.813 132.141,178.580 132.139,180.600 131.412 C 181.480 131.095,181.840 130.842,181.400 130.850 C 180.960 130.858,180.060 131.112,179.400 131.414 M130.400 132.000 C 130.885 132.314,130.828 132.389,130.100 132.394 C 129.605 132.397,129.200 132.220,129.200 132.000 C 129.200 131.499,129.624 131.499,130.400 132.000 M202.800 140.191 C 202.800 140.523,204.421 142.901,204.857 143.209 C 205.389 143.585,206.364 145.734,206.156 146.071 C 206.044 146.252,203.983 146.400,201.576 146.400 C 199.169 146.400,197.200 146.546,197.200 146.725 C 197.200 146.904,197.627 147.939,198.149 149.025 C 198.671 150.111,199.503 151.990,199.997 153.200 C 200.491 154.410,201.132 155.942,201.421 156.604 C 202.035 158.011,205.663 168.972,206.384 171.600 C 206.656 172.590,207.040 173.713,207.239 174.095 C 207.438 174.477,207.603 175.107,207.606 175.495 C 207.613 176.317,208.526 179.059,208.926 179.459 C 209.077 179.610,209.200 180.156,209.200 180.672 C 209.200 181.188,209.356 181.923,209.546 182.305 C 209.736 182.687,210.268 184.260,210.727 185.800 C 212.870 192.984,213.297 194.318,213.990 196.000 C 214.399 196.990,216.031 201.130,217.617 205.200 C 221.039 213.980,224.291 220.675,227.403 225.352 C 230.389 229.840,230.462 229.893,232.086 228.750 C 234.522 227.038,234.554 226.968,233.801 225.089 C 232.684 222.300,230.800 215.948,230.800 214.968 C 230.800 214.875,232.761 214.800,235.157 214.800 C 238.911 214.800,239.551 214.705,239.779 214.111 C 240.005 213.521,240.096 213.507,240.415 214.011 C 240.963 214.877,240.915 212.345,240.357 210.926 C 240.114 210.307,239.652 208.630,239.332 207.200 C 238.624 204.040,238.613 203.998,238.299 203.000 C 238.160 202.560,237.947 201.524,237.825 200.697 C 237.703 199.871,237.438 198.881,237.235 198.497 C 237.033 198.114,236.574 197.125,236.215 196.300 C 235.609 194.907,234.800 194.278,234.800 195.200 C 234.800 195.445,232.924 195.600,229.971 195.600 L 225.142 195.600 225.416 197.900 C 225.567 199.165,225.746 200.690,225.815 201.289 C 225.883 201.887,226.055 202.742,226.196 203.189 C 226.443 203.966,226.290 204.000,222.501 204.000 L 218.548 204.000 217.674 202.362 C 217.193 201.461,216.800 200.559,216.800 200.358 C 216.800 200.156,216.457 199.228,216.039 198.296 C 215.194 196.414,212.770 189.246,210.800 182.800 C 209.384 178.169,208.876 176.599,208.405 175.400 C 208.233 174.960,207.870 173.790,207.600 172.800 C 207.330 171.810,206.964 170.640,206.787 170.200 C 206.610 169.760,206.365 168.860,206.242 168.200 C 206.120 167.540,205.904 166.595,205.763 166.100 C 205.507 165.202,205.518 165.200,210.353 165.200 C 213.019 165.200,215.200 165.043,215.200 164.851 C 215.200 164.315,213.238 158.353,212.617 157.000 C 212.314 156.340,211.745 154.990,211.354 154.000 C 210.694 152.332,209.874 150.700,207.633 146.599 C 206.693 144.881,202.800 139.718,202.800 140.191 M152.600 144.067 C 149.737 145.652,140.561 154.819,133.248 163.400 C 123.934 174.330,111.330 193.246,105.129 205.600 C 103.461 208.924,103.303 208.800,109.200 208.800 C 115.565 208.800,115.436 208.043,110.653 217.327 C 102.470 233.208,101.767 234.328,97.671 238.013 C 95.562 239.909,89.789 243.200,88.571 243.200 C 88.257 243.200,88.000 243.380,88.000 243.600 C 88.000 243.825,89.125 244.000,90.576 244.000 C 91.993 244.000,93.264 243.820,93.400 243.600 C 93.536 243.380,94.346 243.200,95.200 243.200 C 96.054 243.200,96.864 243.020,97.000 242.800 C 97.136 242.580,97.676 242.400,98.200 242.400 C 98.724 242.400,99.264 242.220,99.400 242.000 C 99.536 241.780,100.087 241.600,100.624 241.600 C 101.161 241.600,101.600 241.420,101.600 241.200 C 101.600 240.980,101.893 240.800,102.251 240.800 C 105.020 240.800,114.800 233.431,117.021 229.672 C 117.434 228.972,117.914 228.400,118.086 228.400 C 118.259 228.400,118.400 228.164,118.400 227.875 C 118.400 227.587,118.760 226.964,119.200 226.492 C 119.640 226.020,120.000 225.255,120.000 224.793 C 120.000 224.331,120.146 224.043,120.325 224.153 C 120.675 224.370,122.685 220.317,122.881 219.000 C 122.946 218.560,123.153 218.089,123.339 217.952 C 123.526 217.816,123.706 217.248,123.739 216.691 C 123.773 216.133,123.935 215.760,124.100 215.862 C 124.265 215.964,124.400 215.497,124.400 214.824 C 124.400 214.151,124.580 213.600,124.800 213.600 C 125.020 213.600,125.200 213.229,125.200 212.776 C 125.200 212.224,125.035 212.052,124.700 212.253 C 124.300 212.493,124.301 212.429,124.700 211.935 C 125.894 210.460,124.261 208.000,122.089 208.000 C 121.874 208.000,121.458 207.711,121.165 207.358 C 120.873 207.005,120.220 206.560,119.716 206.368 C 119.212 206.177,118.800 205.776,118.800 205.479 C 118.800 204.837,125.472 191.675,126.038 191.200 C 126.170 191.090,126.398 190.505,126.546 189.900 L 126.815 188.800 121.378 188.800 L 115.941 188.800 117.235 186.500 C 124.198 174.118,138.995 156.034,149.369 147.227 C 153.115 144.046,153.339 143.965,154.171 145.500 C 154.499 146.105,154.775 146.456,154.784 146.280 C 154.800 145.954,153.653 143.590,153.490 143.612 C 153.440 143.619,153.040 143.824,152.600 144.067 M158.979 150.422 C 158.263 151.169,157.535 151.572,157.104 151.459 C 156.308 151.251,156.186 151.626,156.837 152.277 C 157.140 152.580,157.149 152.948,156.865 153.479 C 156.619 153.938,156.598 154.473,156.811 154.818 C 157.007 155.135,157.058 155.827,156.925 156.356 C 156.753 157.041,156.821 157.234,157.159 157.025 C 157.421 156.863,157.897 156.949,158.218 157.215 C 158.628 157.555,158.800 157.565,158.800 157.249 C 158.800 156.465,163.371 156.682,164.099 157.500 C 164.763 158.246,166.975 162.501,168.413 165.800 C 171.967 173.948,171.655 173.585,175.113 173.594 C 177.139 173.599,177.674 173.735,177.878 174.300 C 178.017 174.685,178.434 175.450,178.804 176.000 C 179.175 176.550,179.579 177.360,179.702 177.800 C 179.825 178.240,181.030 181.480,182.380 185.000 C 183.731 188.520,185.749 193.830,186.866 196.800 C 187.982 199.770,189.252 203.010,189.688 204.000 C 190.123 204.990,190.618 206.160,190.786 206.600 C 194.551 216.421,201.256 227.906,206.219 233.032 L 209.092 236.000 205.176 236.000 C 200.440 236.000,197.219 233.940,192.932 228.168 C 192.455 227.526,190.950 225.515,189.588 223.700 L 187.111 220.400 181.579 220.400 C 175.995 220.400,174.680 220.738,176.133 221.800 C 176.493 222.064,176.670 222.396,176.527 222.540 C 176.384 222.683,176.522 222.803,176.833 222.806 C 177.313 222.811,177.315 222.866,176.846 223.163 C 176.402 223.444,176.459 223.604,177.131 223.963 C 177.634 224.232,177.879 224.650,177.742 225.006 C 177.617 225.333,177.714 225.600,177.957 225.600 C 178.201 225.600,178.400 225.870,178.400 226.200 C 178.400 226.530,178.580 226.800,178.800 226.800 C 179.020 226.800,179.200 227.077,179.200 227.416 C 179.200 228.707,184.928 235.600,186.000 235.600 C 186.220 235.600,186.401 235.825,186.403 236.100 C 186.406 236.713,188.730 238.090,189.235 237.778 C 189.436 237.654,189.600 237.844,189.600 238.201 C 189.600 238.740,189.895 238.805,191.353 238.586 C 192.317 238.442,193.203 238.481,193.322 238.674 C 193.441 238.866,195.667 239.069,198.269 239.124 C 200.871 239.179,203.499 239.422,204.109 239.664 C 205.367 240.164,210.195 239.907,212.482 239.218 C 214.306 238.669,214.155 238.056,211.881 236.790 C 205.736 233.366,197.462 221.155,191.696 207.000 C 189.948 202.708,189.835 202.406,185.783 191.200 C 184.312 187.130,182.768 183.091,182.354 182.225 C 181.939 181.359,181.600 180.411,181.600 180.119 C 181.600 179.828,181.441 179.277,181.247 178.895 C 181.052 178.513,180.710 177.750,180.485 177.200 C 178.862 173.221,173.250 162.311,172.700 162.067 C 172.535 161.993,172.400 161.678,172.400 161.367 C 172.400 160.941,171.808 160.800,170.027 160.800 C 167.271 160.800,167.334 160.863,164.194 155.000 C 160.793 148.650,160.730 148.594,158.979 150.422 M70.318 224.755 C 67.305 230.862,64.399 236.401,64.000 236.800 C 63.890 236.910,63.298 237.990,62.684 239.200 C 62.071 240.410,61.223 242.014,60.800 242.764 C 59.725 244.673,59.949 244.800,64.405 244.800 L 68.364 244.800 68.564 243.500 C 68.675 242.785,68.872 241.300,69.004 240.200 C 69.634 234.939,72.111 222.704,73.044 220.250 C 74.204 217.201,73.352 218.608,70.318 224.755 M191.478 239.056 C 191.179 239.355,191.506 240.000,191.957 240.000 C 192.127 240.000,192.267 239.730,192.267 239.400 C 192.267 238.773,191.914 238.619,191.478 239.056 " stroke="none" fill="#178ebd" fill-rule="evenodd"/></g></svg>